<svg id="Layer_1" data-name="Layer 1" xmlns="http://www.w3.org/2000/svg" xmlns:xlink="http://www.w3.org/1999/xlink" viewBox="0 0 800 800"><defs><style>.cls-1,.cls-10,.cls-11{fill:#0073e0;}.cls-14,.cls-2,.cls-3{fill:none;}.cls-13,.cls-14,.cls-3,.cls-9{stroke-miterlimit:10;}.cls-14,.cls-3{stroke-width:1.28px;}.cls-3{stroke:url(#Unnamed_Pattern_3);}.cls-4{clip-path:url(#clip-path);}.cls-5,.cls-9{fill:#002569;}.cls-13,.cls-6{fill:#092f80;}.cls-7{fill:#173da3;}.cls-8{clip-path:url(#clip-path-2);}.cls-13,.cls-9{stroke-width:1.32px;}.cls-9{stroke:url(#Unnamed_Pattern_3-3);}.cls-10{opacity:0.15;}.cls-11{opacity:0.3;}.cls-12{clip-path:url(#clip-path-3);}.cls-13{stroke:url(#Unnamed_Pattern_3-5);}.cls-14{stroke:url(#Unnamed_Pattern_3-9);}</style><pattern id="Unnamed_Pattern_3" data-name="Unnamed Pattern 3" width="640" height="608" patternTransform="translate(1123.41 -1431.01) scale(1.25 1.32)" patternUnits="userSpaceOnUse" viewBox="0 0 640 608"><rect class="cls-2" width="640" height="608"/><g class="cls-4"><rect class="cls-5" width="640" height="608"/><path class="cls-6" d="M246.08,22.3C233.12,7.5,213.8,0,188.68,0s-44.45,7.5-57.41,22.3c-12.68,14.47-19.11,36-19.11,63.83s6.43,49.36,19.11,63.83c13,14.79,32.28,22.3,57.41,22.3s44.44-7.51,57.4-22.3c12.68-14.47,19.11-35.95,19.11-63.83S258.76,36.77,246.08,22.3Z"/><path class="cls-6" d="M57.41,22.3C44.44,7.5,25.13,0,0,0S-44.44,7.5-57.41,22.3c-12.68,14.47-19.11,36-19.11,63.83s6.43,49.36,19.11,63.83c13,14.79,32.28,22.3,57.41,22.3s44.44-7.51,57.41-22.3C70.09,135.49,76.52,114,76.52,86.13S70.09,36.77,57.41,22.3Z"/><path class="cls-6" d="M697.41,22.3C684.44,7.5,665.13,0,640,0s-44.44,7.5-57.41,22.3c-12.68,14.47-19.11,36-19.11,63.83s6.43,49.36,19.11,63.83c13,14.79,32.28,22.3,57.41,22.3s44.44-7.51,57.41-22.3c12.68-14.47,19.11-35.95,19.11-63.83S710.09,36.77,697.41,22.3Z"/><path class="cls-7" d="M393.92,22.3c-12.68,14.47-19.11,36-19.11,63.83s6.43,49.36,19.11,63.83a59.29,59.29,0,0,0,9.14,8.43,59.36,59.36,0,0,0,9.15-8.43c12.68-14.47,19.11-35.95,19.11-63.83s-6.43-49.36-19.11-63.83a59.36,59.36,0,0,0-9.15-8.43A59.29,59.29,0,0,0,393.92,22.3Z"/><path class="cls-6" d="M393.92,150c-12.68-14.47-19.11-35.95-19.11-63.83s6.43-49.36,19.11-63.83a59.29,59.29,0,0,1,9.14-8.43C391.68,5.37,377,.74,359.23.09,357.77,0,356.3,0,354.8,0c-25.13,0-44.44,7.5-57.41,22.3-12.68,14.47-19.11,36-19.11,63.83s6.43,49.36,19.11,63.83c13,14.79,32.28,22.3,57.41,22.3,1.5,0,3,0,4.43-.09,17.78-.66,32.45-5.28,43.83-13.78A59.29,59.29,0,0,1,393.92,150Z"/><path class="cls-6" d="M508.73,22.3C496.35,8.17,478.16.71,454.67.06c-1.11,0-2.21-.06-3.35-.06-19.78,0-35.94,4.67-48.26,13.87a59.36,59.36,0,0,1,9.15,8.43c12.68,14.47,19.11,36,19.11,63.83s-6.43,49.36-19.11,63.83a59.36,59.36,0,0,1-9.15,8.43c12.32,9.2,28.48,13.87,48.26,13.87,1.14,0,2.24,0,3.35-.07,23.49-.64,41.68-8.1,54.06-22.23,12.68-14.47,19.11-35.95,19.11-63.83S521.41,36.77,508.73,22.3Z"/><path class="cls-6" d="M143.93,436.29c-13-14.8-32.29-22.3-57.41-22.3s-44.44,7.5-57.41,22.3C16.43,450.76,10,472.23,10,500.12S16.43,549.47,29.11,564c13,14.79,32.28,22.29,57.41,22.29S131,578.74,143.93,564C156.61,549.47,163,528,163,500.12S156.61,450.76,143.93,436.29Z"/><path class="cls-6" d="M600.89,436.29c-13-14.8-32.28-22.3-57.41-22.3s-44.44,7.5-57.41,22.3C473.39,450.76,467,472.23,467,500.12s6.43,49.35,19.11,63.83c13,14.79,32.28,22.29,57.41,22.29s44.44-7.5,57.41-22.29C613.57,549.47,620,528,620,500.12S613.57,450.76,600.89,436.29Z"/><path class="cls-7" d="M295,436.29c-12.68,14.47-19.11,35.94-19.11,63.83S282.29,549.47,295,564a59.29,59.29,0,0,0,9.15,8.42,59.22,59.22,0,0,0,9.14-8.42c12.68-14.48,19.11-36,19.11-63.83s-6.43-49.36-19.11-63.83a58.8,58.8,0,0,0-9.14-8.43A58.86,58.86,0,0,0,295,436.29Z"/><path class="cls-6" d="M295,564c-12.68-14.48-19.11-36-19.11-63.83s6.43-49.36,19.11-63.83a58.86,58.86,0,0,1,9.15-8.43c-11.38-8.5-26.06-13.13-43.83-13.78-1.46-.06-2.93-.09-4.43-.09-25.13,0-44.44,7.5-57.41,22.3-12.68,14.47-19.11,35.94-19.11,63.83s6.43,49.35,19.11,63.83c13,14.79,32.28,22.29,57.41,22.29,1.5,0,3,0,4.43-.09,17.77-.65,32.45-5.27,43.83-13.78A59.29,59.29,0,0,1,295,564Z"/><path class="cls-6" d="M409.79,436.29c-12.39-14.13-30.57-21.59-54.07-22.24-1.1,0-2.21-.06-3.34-.06-19.78,0-35.95,4.67-48.26,13.87a58.8,58.8,0,0,1,9.14,8.43c12.68,14.47,19.11,35.94,19.11,63.83s-6.43,49.35-19.11,63.83a59.22,59.22,0,0,1-9.14,8.42c12.31,9.2,28.48,13.87,48.26,13.87,1.13,0,2.24,0,3.34-.06,23.5-.64,41.68-8.1,54.07-22.23,12.68-14.48,19.11-36,19.11-63.83S422.47,450.76,409.79,436.29Z"/><path class="cls-6" d="M426.35,216.31c-13-14.8-32.28-22.3-57.41-22.3s-44.44,7.5-57.41,22.3c-12.68,14.47-19.11,35.95-19.11,63.83s6.43,49.36,19.11,63.83c13,14.8,32.28,22.3,57.41,22.3s44.44-7.5,57.41-22.3c12.68-14.47,19.11-36,19.11-63.83S439,230.78,426.35,216.31Z"/><path class="cls-7" d="M574.18,216.31c-12.68,14.47-19.11,35.95-19.11,63.83S561.5,329.5,574.18,344a59.36,59.36,0,0,0,9.15,8.43,59.75,59.75,0,0,0,9.14-8.43c12.68-14.47,19.11-36,19.11-63.83s-6.43-49.36-19.11-63.83a59.75,59.75,0,0,0-9.14-8.43A59.36,59.36,0,0,0,574.18,216.31Z"/><path class="cls-6" d="M574.18,344c-12.68-14.47-19.11-36-19.11-63.83s6.43-49.36,19.11-63.83a59.36,59.36,0,0,1,9.15-8.43c-11.38-8.5-26.06-13.12-43.83-13.78-1.46,0-2.93-.09-4.43-.09-25.13,0-44.45,7.5-57.41,22.3-12.68,14.47-19.11,35.95-19.11,63.83S465,329.5,477.66,344c13,14.8,32.28,22.3,57.41,22.3,1.5,0,3,0,4.43-.09,17.77-.66,32.45-5.28,43.83-13.78A59.36,59.36,0,0,1,574.18,344Z"/><path class="cls-6" d="M689,216.31c-12.39-14.13-30.57-21.59-54.07-22.23-1.11,0-2.21-.07-3.34-.07-19.78,0-36,4.67-48.26,13.87a59.75,59.75,0,0,1,9.14,8.43c12.68,14.47,19.11,35.95,19.11,63.83S605.15,329.5,592.47,344a59.75,59.75,0,0,1-9.14,8.43c12.31,9.2,28.48,13.87,48.26,13.87,1.13,0,2.23,0,3.34-.06,23.5-.65,41.68-8.11,54.07-22.24,12.68-14.47,19.11-36,19.11-63.83S701.68,230.78,689,216.31Z"/><path class="cls-7" d="M49.91,344C62.59,329.5,69,308,69,280.14s-6.43-49.36-19.11-63.83a59.29,59.29,0,0,0-9.14-8.43,59.36,59.36,0,0,0-9.15,8.43c-12.68,14.47-19.11,35.95-19.11,63.83S18.94,329.5,31.62,344a59.36,59.36,0,0,0,9.15,8.43A59.29,59.29,0,0,0,49.91,344Z"/><path class="cls-6" d="M49.91,216.31C62.59,230.78,69,252.26,69,280.14S62.59,329.5,49.91,344a59.29,59.29,0,0,1-9.14,8.43c11.38,8.5,26,13.12,43.83,13.78,1.46.05,2.93.09,4.43.09,25.13,0,44.44-7.5,57.41-22.3,12.68-14.47,19.11-36,19.11-63.83s-6.43-49.36-19.11-63.83c-13-14.8-32.28-22.3-57.41-22.3-1.5,0-3,0-4.43.09-17.78.66-32.45,5.28-43.83,13.78A59.29,59.29,0,0,1,49.91,216.31Z"/><path class="cls-6" d="M-65.82,344c12.38,14.13,30.57,21.59,54.07,22.24,1.1,0,2.21.06,3.34.06,19.78,0,35.94-4.67,48.26-13.87A58.83,58.83,0,0,1,30.71,344C18,329.5,11.59,308,11.59,280.14S18,230.78,30.71,216.31a58.83,58.83,0,0,1,9.14-8.43C27.53,198.68,11.37,194-8.41,194c-1.13,0-2.24,0-3.34.07-23.5.64-41.69,8.1-54.07,22.23-12.68,14.47-19.11,35.95-19.11,63.83S-78.5,329.5-65.82,344Z"/></g></pattern><clipPath id="clip-path"><rect class="cls-2" width="640" height="608"/></clipPath><clipPath id="clip-path-2"><rect class="cls-1" width="800" height="800"/></clipPath><pattern id="Unnamed_Pattern_3-3" data-name="Unnamed Pattern 3" width="640" height="608" patternTransform="translate(1287.87 -2231.01) scale(1.32)" patternUnits="userSpaceOnUse" viewBox="0 0 640 608"><rect class="cls-2" width="640" height="608"/><g class="cls-4"><rect class="cls-5" width="640" height="608"/><path class="cls-6" d="M246.08,22.3C233.12,7.5,213.8,0,188.68,0s-44.45,7.5-57.41,22.3c-12.68,14.47-19.11,36-19.11,63.83s6.43,49.36,19.11,63.83c13,14.79,32.28,22.3,57.41,22.3s44.44-7.51,57.4-22.3c12.68-14.47,19.11-35.95,19.11-63.83S258.76,36.77,246.08,22.3Z"/><path class="cls-6" d="M57.41,22.3C44.44,7.5,25.13,0,0,0S-44.44,7.5-57.41,22.3c-12.68,14.47-19.11,36-19.11,63.83s6.43,49.36,19.11,63.83c13,14.79,32.28,22.3,57.41,22.3s44.44-7.51,57.41-22.3C70.09,135.49,76.52,114,76.52,86.13S70.09,36.77,57.41,22.3Z"/><path class="cls-6" d="M697.41,22.3C684.44,7.5,665.13,0,640,0s-44.44,7.5-57.41,22.3c-12.68,14.47-19.11,36-19.11,63.83s6.43,49.36,19.11,63.83c13,14.79,32.28,22.3,57.41,22.3s44.44-7.51,57.41-22.3c12.68-14.47,19.11-35.95,19.11-63.83S710.09,36.77,697.41,22.3Z"/><path class="cls-7" d="M393.92,22.3c-12.68,14.47-19.11,36-19.11,63.83s6.43,49.36,19.11,63.83a59.29,59.29,0,0,0,9.14,8.43,59.36,59.36,0,0,0,9.15-8.43c12.68-14.47,19.11-35.95,19.11-63.83s-6.43-49.36-19.11-63.83a59.36,59.36,0,0,0-9.15-8.43A59.29,59.29,0,0,0,393.92,22.3Z"/><path class="cls-6" d="M393.92,150c-12.68-14.47-19.11-35.95-19.11-63.83s6.43-49.36,19.11-63.83a59.29,59.29,0,0,1,9.14-8.43C391.68,5.37,377,.74,359.23.09,357.77,0,356.3,0,354.8,0c-25.13,0-44.44,7.5-57.41,22.3-12.68,14.47-19.11,36-19.11,63.83s6.43,49.36,19.11,63.83c13,14.79,32.28,22.3,57.41,22.3,1.5,0,3,0,4.43-.09,17.78-.66,32.45-5.28,43.83-13.78A59.29,59.29,0,0,1,393.92,150Z"/><path class="cls-6" d="M508.73,22.3C496.35,8.17,478.16.71,454.67.06c-1.11,0-2.21-.06-3.35-.06-19.78,0-35.94,4.67-48.26,13.87a59.36,59.36,0,0,1,9.15,8.43c12.68,14.47,19.11,36,19.11,63.83s-6.43,49.36-19.11,63.83a59.36,59.36,0,0,1-9.15,8.43c12.32,9.2,28.48,13.87,48.26,13.87,1.14,0,2.24,0,3.35-.07,23.49-.64,41.68-8.1,54.06-22.23,12.68-14.47,19.11-35.95,19.11-63.83S521.41,36.77,508.73,22.3Z"/><path class="cls-6" d="M143.93,436.29c-13-14.8-32.29-22.3-57.41-22.3s-44.44,7.5-57.41,22.3C16.43,450.76,10,472.23,10,500.12S16.43,549.47,29.11,564c13,14.79,32.28,22.29,57.41,22.29S131,578.74,143.93,564C156.61,549.47,163,528,163,500.12S156.61,450.76,143.93,436.29Z"/><path class="cls-6" d="M600.89,436.29c-13-14.8-32.28-22.3-57.41-22.3s-44.44,7.5-57.41,22.3C473.39,450.76,467,472.23,467,500.12s6.43,49.35,19.11,63.83c13,14.79,32.28,22.29,57.41,22.29s44.44-7.5,57.41-22.29C613.57,549.47,620,528,620,500.12S613.57,450.76,600.89,436.29Z"/><path class="cls-7" d="M295,436.29c-12.68,14.47-19.11,35.94-19.11,63.83S282.29,549.47,295,564a59.29,59.29,0,0,0,9.15,8.42,59.22,59.22,0,0,0,9.14-8.42c12.68-14.48,19.11-36,19.11-63.83s-6.43-49.36-19.11-63.83a58.8,58.8,0,0,0-9.14-8.43A58.86,58.86,0,0,0,295,436.29Z"/><path class="cls-6" d="M295,564c-12.68-14.48-19.11-36-19.11-63.83s6.43-49.36,19.11-63.83a58.86,58.86,0,0,1,9.15-8.43c-11.38-8.5-26.06-13.13-43.83-13.78-1.46-.06-2.93-.09-4.43-.09-25.13,0-44.44,7.5-57.41,22.3-12.68,14.47-19.11,35.94-19.11,63.83s6.43,49.35,19.11,63.83c13,14.79,32.28,22.29,57.41,22.29,1.5,0,3,0,4.43-.09,17.77-.65,32.45-5.27,43.83-13.78A59.29,59.29,0,0,1,295,564Z"/><path class="cls-6" d="M409.79,436.29c-12.39-14.13-30.57-21.59-54.07-22.24-1.1,0-2.21-.06-3.34-.06-19.78,0-35.95,4.67-48.26,13.87a58.8,58.8,0,0,1,9.14,8.43c12.68,14.47,19.11,35.94,19.11,63.83s-6.43,49.35-19.11,63.83a59.22,59.22,0,0,1-9.14,8.42c12.31,9.2,28.48,13.87,48.26,13.87,1.13,0,2.24,0,3.34-.06,23.5-.64,41.68-8.1,54.07-22.23,12.68-14.48,19.11-36,19.11-63.83S422.47,450.76,409.79,436.29Z"/><path class="cls-6" d="M426.35,216.31c-13-14.8-32.28-22.3-57.41-22.3s-44.44,7.5-57.41,22.3c-12.68,14.47-19.11,35.95-19.11,63.83s6.43,49.36,19.11,63.83c13,14.8,32.28,22.3,57.41,22.3s44.44-7.5,57.41-22.3c12.68-14.47,19.11-36,19.11-63.83S439,230.78,426.35,216.31Z"/><path class="cls-7" d="M574.18,216.31c-12.68,14.47-19.11,35.95-19.11,63.83S561.5,329.5,574.18,344a59.36,59.36,0,0,0,9.15,8.43,59.75,59.75,0,0,0,9.14-8.43c12.68-14.47,19.11-36,19.11-63.83s-6.43-49.36-19.11-63.83a59.75,59.75,0,0,0-9.14-8.43A59.36,59.36,0,0,0,574.18,216.31Z"/><path class="cls-6" d="M574.18,344c-12.68-14.47-19.11-36-19.11-63.83s6.43-49.36,19.11-63.83a59.36,59.36,0,0,1,9.15-8.43c-11.38-8.5-26.06-13.12-43.83-13.78-1.46,0-2.93-.09-4.43-.09-25.13,0-44.45,7.5-57.41,22.3-12.68,14.47-19.11,35.95-19.11,63.83S465,329.5,477.66,344c13,14.8,32.28,22.3,57.41,22.3,1.5,0,3,0,4.43-.09,17.77-.66,32.45-5.28,43.83-13.78A59.36,59.36,0,0,1,574.18,344Z"/><path class="cls-6" d="M689,216.31c-12.39-14.13-30.57-21.59-54.07-22.23-1.11,0-2.21-.07-3.34-.07-19.78,0-36,4.67-48.26,13.87a59.75,59.75,0,0,1,9.14,8.43c12.68,14.47,19.11,35.95,19.11,63.83S605.15,329.5,592.47,344a59.75,59.75,0,0,1-9.14,8.43c12.31,9.2,28.48,13.87,48.26,13.87,1.13,0,2.23,0,3.34-.06,23.5-.65,41.68-8.11,54.07-22.24,12.68-14.47,19.11-36,19.11-63.83S701.68,230.78,689,216.31Z"/><path class="cls-7" d="M49.91,344C62.59,329.5,69,308,69,280.14s-6.43-49.36-19.11-63.83a59.29,59.29,0,0,0-9.14-8.43,59.36,59.36,0,0,0-9.15,8.43c-12.68,14.47-19.11,35.95-19.11,63.83S18.94,329.5,31.62,344a59.36,59.36,0,0,0,9.15,8.43A59.29,59.29,0,0,0,49.91,344Z"/><path class="cls-6" d="M49.91,216.31C62.59,230.78,69,252.26,69,280.14S62.59,329.5,49.91,344a59.29,59.29,0,0,1-9.14,8.43c11.38,8.5,26,13.12,43.83,13.78,1.46.05,2.93.09,4.43.09,25.13,0,44.44-7.5,57.41-22.3,12.68-14.47,19.11-36,19.11-63.83s-6.43-49.36-19.11-63.83c-13-14.8-32.28-22.3-57.41-22.3-1.5,0-3,0-4.43.09-17.78.66-32.45,5.28-43.83,13.78A59.29,59.29,0,0,1,49.91,216.31Z"/><path class="cls-6" d="M-65.82,344c12.38,14.13,30.57,21.59,54.07,22.24,1.1,0,2.21.06,3.34.06,19.78,0,35.94-4.67,48.26-13.87A58.83,58.83,0,0,1,30.71,344C18,329.5,11.59,308,11.59,280.14S18,230.78,30.71,216.31a58.83,58.83,0,0,1,9.14-8.43C27.53,198.68,11.37,194-8.41,194c-1.13,0-2.24,0-3.34.07-23.5.64-41.69,8.1-54.07,22.23-12.68,14.47-19.11,35.95-19.11,63.83S-78.5,329.5-65.82,344Z"/></g></pattern><clipPath id="clip-path-3"><rect class="cls-3" x="-859.81" width="800" height="800"/></clipPath><pattern id="Unnamed_Pattern_3-5" data-name="Unnamed Pattern 3" width="640" height="608" patternTransform="translate(1270.16 -1431.01) scale(1.32)" patternUnits="userSpaceOnUse" viewBox="0 0 640 608"><rect class="cls-2" width="640" height="608"/><g class="cls-4"><rect class="cls-5" width="640" height="608"/><path class="cls-6" d="M246.08,22.3C233.12,7.5,213.8,0,188.68,0s-44.45,7.5-57.41,22.3c-12.68,14.47-19.11,36-19.11,63.83s6.43,49.36,19.11,63.83c13,14.79,32.28,22.3,57.41,22.3s44.44-7.51,57.4-22.3c12.68-14.47,19.11-35.95,19.11-63.83S258.76,36.77,246.08,22.3Z"/><path class="cls-6" d="M57.41,22.3C44.44,7.5,25.13,0,0,0S-44.44,7.5-57.41,22.3c-12.68,14.47-19.11,36-19.11,63.83s6.43,49.36,19.11,63.83c13,14.79,32.28,22.3,57.41,22.3s44.44-7.51,57.41-22.3C70.09,135.49,76.52,114,76.52,86.13S70.09,36.77,57.41,22.3Z"/><path class="cls-6" d="M697.41,22.3C684.44,7.5,665.13,0,640,0s-44.44,7.5-57.41,22.3c-12.68,14.47-19.11,36-19.11,63.83s6.43,49.36,19.11,63.83c13,14.79,32.28,22.3,57.41,22.3s44.44-7.51,57.41-22.3c12.68-14.47,19.11-35.95,19.11-63.83S710.09,36.77,697.41,22.3Z"/><path class="cls-7" d="M393.92,22.3c-12.68,14.47-19.11,36-19.11,63.83s6.43,49.36,19.11,63.83a59.29,59.29,0,0,0,9.14,8.43,59.36,59.36,0,0,0,9.15-8.43c12.68-14.47,19.11-35.95,19.11-63.83s-6.43-49.36-19.11-63.83a59.36,59.36,0,0,0-9.15-8.43A59.29,59.29,0,0,0,393.92,22.3Z"/><path class="cls-6" d="M393.92,150c-12.68-14.47-19.11-35.95-19.11-63.83s6.43-49.36,19.11-63.83a59.29,59.29,0,0,1,9.14-8.43C391.68,5.37,377,.74,359.23.09,357.77,0,356.3,0,354.8,0c-25.13,0-44.44,7.5-57.41,22.3-12.68,14.47-19.11,36-19.11,63.83s6.43,49.36,19.11,63.83c13,14.79,32.28,22.3,57.41,22.3,1.5,0,3,0,4.43-.09,17.78-.66,32.45-5.28,43.83-13.78A59.29,59.29,0,0,1,393.92,150Z"/><path class="cls-6" d="M508.73,22.3C496.35,8.17,478.16.71,454.67.06c-1.11,0-2.21-.06-3.35-.06-19.78,0-35.94,4.67-48.26,13.87a59.36,59.36,0,0,1,9.15,8.43c12.68,14.47,19.11,36,19.11,63.83s-6.43,49.36-19.11,63.83a59.36,59.36,0,0,1-9.15,8.43c12.32,9.2,28.48,13.87,48.26,13.87,1.14,0,2.24,0,3.35-.07,23.49-.64,41.68-8.1,54.06-22.23,12.68-14.47,19.11-35.95,19.11-63.83S521.41,36.77,508.73,22.3Z"/><path class="cls-6" d="M143.93,436.29c-13-14.8-32.29-22.3-57.41-22.3s-44.44,7.5-57.41,22.3C16.43,450.76,10,472.23,10,500.12S16.43,549.47,29.11,564c13,14.79,32.28,22.29,57.41,22.29S131,578.74,143.93,564C156.61,549.47,163,528,163,500.12S156.61,450.76,143.93,436.29Z"/><path class="cls-6" d="M600.89,436.29c-13-14.8-32.28-22.3-57.41-22.3s-44.44,7.5-57.41,22.3C473.39,450.76,467,472.23,467,500.12s6.43,49.35,19.11,63.83c13,14.79,32.28,22.29,57.41,22.29s44.44-7.5,57.41-22.29C613.57,549.47,620,528,620,500.12S613.57,450.76,600.89,436.29Z"/><path class="cls-7" d="M295,436.29c-12.68,14.47-19.11,35.94-19.11,63.83S282.29,549.47,295,564a59.29,59.29,0,0,0,9.15,8.42,59.22,59.22,0,0,0,9.14-8.42c12.68-14.48,19.11-36,19.11-63.83s-6.43-49.36-19.11-63.83a58.8,58.8,0,0,0-9.14-8.43A58.86,58.86,0,0,0,295,436.29Z"/><path class="cls-6" d="M295,564c-12.68-14.48-19.11-36-19.11-63.83s6.43-49.36,19.11-63.83a58.86,58.86,0,0,1,9.15-8.43c-11.38-8.5-26.06-13.13-43.83-13.78-1.46-.06-2.93-.09-4.43-.09-25.13,0-44.44,7.5-57.41,22.3-12.68,14.47-19.11,35.94-19.11,63.83s6.43,49.35,19.11,63.83c13,14.79,32.28,22.29,57.41,22.29,1.5,0,3,0,4.43-.09,17.77-.65,32.45-5.27,43.83-13.78A59.29,59.29,0,0,1,295,564Z"/><path class="cls-6" d="M409.79,436.29c-12.39-14.13-30.57-21.59-54.07-22.24-1.1,0-2.21-.06-3.34-.06-19.78,0-35.95,4.67-48.26,13.87a58.8,58.8,0,0,1,9.14,8.43c12.68,14.47,19.11,35.94,19.11,63.83s-6.43,49.35-19.11,63.83a59.22,59.22,0,0,1-9.14,8.42c12.31,9.2,28.48,13.87,48.26,13.87,1.13,0,2.24,0,3.34-.06,23.5-.64,41.68-8.1,54.07-22.23,12.68-14.48,19.11-36,19.11-63.83S422.47,450.76,409.79,436.29Z"/><path class="cls-6" d="M426.35,216.31c-13-14.8-32.28-22.3-57.41-22.3s-44.44,7.5-57.41,22.3c-12.68,14.47-19.11,35.95-19.11,63.83s6.43,49.36,19.11,63.83c13,14.8,32.28,22.3,57.41,22.3s44.44-7.5,57.41-22.3c12.68-14.47,19.11-36,19.11-63.83S439,230.78,426.35,216.31Z"/><path class="cls-7" d="M574.18,216.31c-12.68,14.47-19.11,35.95-19.11,63.83S561.5,329.5,574.18,344a59.36,59.36,0,0,0,9.15,8.43,59.75,59.75,0,0,0,9.14-8.43c12.68-14.47,19.11-36,19.11-63.83s-6.43-49.36-19.11-63.83a59.75,59.75,0,0,0-9.14-8.43A59.36,59.36,0,0,0,574.18,216.31Z"/><path class="cls-6" d="M574.18,344c-12.68-14.47-19.11-36-19.11-63.83s6.43-49.36,19.11-63.83a59.36,59.36,0,0,1,9.15-8.43c-11.38-8.5-26.06-13.12-43.83-13.78-1.46,0-2.93-.09-4.43-.09-25.13,0-44.45,7.5-57.41,22.3-12.68,14.47-19.11,35.95-19.11,63.83S465,329.5,477.66,344c13,14.8,32.28,22.3,57.41,22.3,1.5,0,3,0,4.43-.09,17.77-.66,32.45-5.28,43.83-13.78A59.36,59.36,0,0,1,574.18,344Z"/><path class="cls-6" d="M689,216.31c-12.39-14.13-30.57-21.59-54.07-22.23-1.11,0-2.21-.07-3.34-.07-19.78,0-36,4.67-48.26,13.87a59.75,59.75,0,0,1,9.14,8.43c12.68,14.47,19.11,35.95,19.11,63.83S605.15,329.5,592.47,344a59.75,59.75,0,0,1-9.14,8.43c12.31,9.2,28.48,13.87,48.26,13.87,1.13,0,2.23,0,3.34-.06,23.5-.65,41.68-8.11,54.07-22.24,12.68-14.47,19.11-36,19.11-63.83S701.68,230.78,689,216.31Z"/><path class="cls-7" d="M49.91,344C62.59,329.5,69,308,69,280.14s-6.43-49.36-19.11-63.83a59.29,59.29,0,0,0-9.14-8.43,59.36,59.36,0,0,0-9.15,8.43c-12.68,14.47-19.11,35.95-19.11,63.83S18.94,329.5,31.62,344a59.36,59.36,0,0,0,9.15,8.43A59.29,59.29,0,0,0,49.91,344Z"/><path class="cls-6" d="M49.91,216.31C62.59,230.78,69,252.26,69,280.14S62.59,329.5,49.91,344a59.29,59.29,0,0,1-9.14,8.43c11.38,8.5,26,13.12,43.83,13.78,1.46.05,2.93.09,4.43.09,25.13,0,44.44-7.5,57.41-22.3,12.68-14.47,19.11-36,19.11-63.83s-6.43-49.36-19.11-63.83c-13-14.8-32.28-22.3-57.41-22.3-1.5,0-3,0-4.43.09-17.78.66-32.45,5.28-43.83,13.78A59.29,59.29,0,0,1,49.91,216.31Z"/><path class="cls-6" d="M-65.82,344c12.38,14.13,30.57,21.59,54.07,22.24,1.1,0,2.21.06,3.34.06,19.78,0,35.94-4.67,48.26-13.87A58.83,58.83,0,0,1,30.71,344C18,329.5,11.59,308,11.59,280.14S18,230.78,30.71,216.31a58.83,58.83,0,0,1,9.14-8.43C27.53,198.68,11.37,194-8.41,194c-1.13,0-2.24,0-3.34.07-23.5.64-41.69,8.1-54.07,22.23-12.68,14.47-19.11,35.95-19.11,63.83S-78.5,329.5-65.82,344Z"/></g></pattern><pattern id="Unnamed_Pattern_3-9" data-name="Unnamed Pattern 3" width="640" height="608" patternTransform="translate(1123.41 -1431.01) scale(1.25 1.32)" patternUnits="userSpaceOnUse" viewBox="0 0 640 608"><rect class="cls-2" width="640" height="608"/><g class="cls-4"><rect class="cls-5" width="640" height="608"/><path class="cls-6" d="M246.08,22.3C233.12,7.5,213.8,0,188.68,0s-44.45,7.5-57.41,22.3c-12.68,14.47-19.11,36-19.11,63.83s6.43,49.36,19.11,63.83c13,14.79,32.28,22.3,57.41,22.3s44.44-7.51,57.4-22.3c12.68-14.47,19.11-35.95,19.11-63.83S258.76,36.77,246.08,22.3Z"/><path class="cls-6" d="M57.41,22.3C44.44,7.5,25.13,0,0,0S-44.44,7.5-57.41,22.3c-12.68,14.47-19.11,36-19.11,63.83s6.43,49.36,19.11,63.83c13,14.79,32.28,22.3,57.41,22.3s44.44-7.51,57.41-22.3C70.09,135.49,76.52,114,76.52,86.13S70.09,36.77,57.41,22.3Z"/><path class="cls-6" d="M697.41,22.3C684.44,7.5,665.13,0,640,0s-44.44,7.5-57.41,22.3c-12.68,14.47-19.11,36-19.11,63.83s6.43,49.36,19.11,63.83c13,14.79,32.28,22.3,57.41,22.3s44.44-7.51,57.41-22.3c12.68-14.47,19.11-35.95,19.11-63.83S710.09,36.77,697.41,22.3Z"/><path class="cls-7" d="M393.92,22.3c-12.68,14.47-19.11,36-19.11,63.83s6.43,49.36,19.11,63.83a59.29,59.29,0,0,0,9.14,8.43,59.36,59.36,0,0,0,9.15-8.43c12.68-14.47,19.11-35.95,19.11-63.83s-6.43-49.36-19.11-63.83a59.36,59.36,0,0,0-9.15-8.43A59.29,59.29,0,0,0,393.92,22.3Z"/><path class="cls-6" d="M393.92,150c-12.68-14.47-19.11-35.95-19.11-63.83s6.43-49.36,19.11-63.83a59.29,59.29,0,0,1,9.14-8.43C391.68,5.37,377,.74,359.23.09,357.77,0,356.3,0,354.8,0c-25.13,0-44.44,7.5-57.41,22.3-12.68,14.47-19.11,36-19.11,63.83s6.43,49.36,19.11,63.83c13,14.79,32.28,22.3,57.41,22.3,1.5,0,3,0,4.43-.09,17.78-.66,32.45-5.28,43.83-13.78A59.29,59.29,0,0,1,393.92,150Z"/><path class="cls-6" d="M508.73,22.3C496.35,8.17,478.16.71,454.67.06c-1.11,0-2.21-.06-3.35-.06-19.78,0-35.94,4.67-48.26,13.87a59.36,59.36,0,0,1,9.15,8.43c12.68,14.47,19.11,36,19.11,63.83s-6.43,49.36-19.11,63.83a59.36,59.36,0,0,1-9.15,8.43c12.32,9.2,28.48,13.87,48.26,13.87,1.14,0,2.24,0,3.35-.07,23.49-.64,41.68-8.1,54.06-22.23,12.68-14.47,19.11-35.95,19.11-63.83S521.41,36.77,508.73,22.3Z"/><path class="cls-6" d="M143.93,436.29c-13-14.8-32.29-22.3-57.41-22.3s-44.44,7.5-57.41,22.3C16.43,450.76,10,472.23,10,500.12S16.43,549.47,29.11,564c13,14.79,32.28,22.29,57.41,22.29S131,578.74,143.93,564C156.61,549.47,163,528,163,500.12S156.61,450.76,143.93,436.29Z"/><path class="cls-6" d="M600.89,436.29c-13-14.8-32.28-22.3-57.41-22.3s-44.44,7.5-57.41,22.3C473.39,450.76,467,472.23,467,500.12s6.43,49.35,19.11,63.83c13,14.79,32.28,22.29,57.41,22.29s44.44-7.5,57.41-22.29C613.57,549.47,620,528,620,500.12S613.57,450.76,600.89,436.29Z"/><path class="cls-7" d="M295,436.29c-12.68,14.47-19.11,35.94-19.11,63.83S282.29,549.47,295,564a59.29,59.29,0,0,0,9.15,8.42,59.22,59.22,0,0,0,9.14-8.42c12.68-14.48,19.11-36,19.11-63.83s-6.43-49.36-19.11-63.83a58.8,58.8,0,0,0-9.14-8.43A58.86,58.86,0,0,0,295,436.29Z"/><path class="cls-6" d="M295,564c-12.68-14.48-19.11-36-19.11-63.83s6.43-49.36,19.11-63.83a58.86,58.86,0,0,1,9.15-8.43c-11.38-8.5-26.06-13.13-43.83-13.78-1.46-.06-2.93-.09-4.43-.09-25.13,0-44.44,7.5-57.41,22.3-12.68,14.47-19.11,35.94-19.11,63.83s6.43,49.35,19.11,63.83c13,14.79,32.28,22.29,57.41,22.29,1.5,0,3,0,4.43-.09,17.77-.65,32.45-5.27,43.83-13.78A59.29,59.29,0,0,1,295,564Z"/><path class="cls-6" d="M409.79,436.29c-12.39-14.13-30.57-21.59-54.07-22.24-1.1,0-2.21-.06-3.34-.06-19.78,0-35.95,4.67-48.26,13.87a58.8,58.8,0,0,1,9.14,8.43c12.68,14.47,19.11,35.94,19.11,63.83s-6.43,49.35-19.11,63.83a59.22,59.22,0,0,1-9.14,8.42c12.31,9.2,28.48,13.87,48.26,13.87,1.13,0,2.24,0,3.34-.06,23.5-.64,41.68-8.1,54.07-22.23,12.68-14.48,19.11-36,19.11-63.83S422.47,450.76,409.79,436.29Z"/><path class="cls-6" d="M426.35,216.31c-13-14.8-32.28-22.3-57.41-22.3s-44.44,7.5-57.41,22.3c-12.68,14.47-19.11,35.95-19.11,63.83s6.43,49.36,19.11,63.83c13,14.8,32.28,22.3,57.41,22.3s44.44-7.5,57.41-22.3c12.68-14.47,19.11-36,19.11-63.83S439,230.78,426.35,216.31Z"/><path class="cls-7" d="M574.18,216.31c-12.68,14.47-19.11,35.95-19.11,63.83S561.5,329.5,574.18,344a59.36,59.36,0,0,0,9.15,8.43,59.75,59.75,0,0,0,9.14-8.43c12.68-14.47,19.11-36,19.11-63.83s-6.43-49.36-19.11-63.83a59.75,59.75,0,0,0-9.14-8.43A59.36,59.36,0,0,0,574.18,216.31Z"/><path class="cls-6" d="M574.18,344c-12.68-14.47-19.11-36-19.11-63.83s6.43-49.36,19.11-63.83a59.36,59.36,0,0,1,9.15-8.43c-11.38-8.5-26.06-13.12-43.83-13.78-1.46,0-2.93-.09-4.43-.09-25.13,0-44.45,7.5-57.41,22.3-12.68,14.47-19.11,35.95-19.11,63.83S465,329.5,477.66,344c13,14.8,32.28,22.3,57.41,22.3,1.5,0,3,0,4.43-.09,17.77-.66,32.45-5.28,43.83-13.78A59.36,59.36,0,0,1,574.18,344Z"/><path class="cls-6" d="M689,216.31c-12.39-14.13-30.57-21.59-54.07-22.23-1.11,0-2.21-.07-3.34-.07-19.78,0-36,4.67-48.26,13.87a59.75,59.75,0,0,1,9.14,8.43c12.68,14.47,19.11,35.95,19.11,63.83S605.15,329.5,592.47,344a59.75,59.75,0,0,1-9.14,8.43c12.31,9.2,28.48,13.87,48.26,13.87,1.13,0,2.23,0,3.34-.06,23.5-.65,41.68-8.11,54.07-22.24,12.68-14.47,19.11-36,19.11-63.83S701.68,230.78,689,216.31Z"/><path class="cls-7" d="M49.91,344C62.59,329.5,69,308,69,280.14s-6.43-49.36-19.11-63.83a59.29,59.29,0,0,0-9.14-8.43,59.36,59.36,0,0,0-9.15,8.43c-12.68,14.47-19.11,35.95-19.11,63.83S18.94,329.5,31.62,344a59.36,59.36,0,0,0,9.15,8.43A59.29,59.29,0,0,0,49.91,344Z"/><path class="cls-6" d="M49.91,216.31C62.59,230.78,69,252.26,69,280.14S62.59,329.5,49.91,344a59.29,59.29,0,0,1-9.14,8.43c11.38,8.5,26,13.12,43.83,13.78,1.46.05,2.93.09,4.43.09,25.13,0,44.44-7.5,57.41-22.3,12.68-14.47,19.11-36,19.11-63.83s-6.43-49.36-19.11-63.83c-13-14.8-32.28-22.3-57.41-22.3-1.5,0-3,0-4.43.09-17.78.66-32.45,5.28-43.83,13.78A59.29,59.29,0,0,1,49.91,216.31Z"/><path class="cls-6" d="M-65.82,344c12.38,14.13,30.57,21.59,54.07,22.24,1.1,0,2.21.06,3.34.06,19.78,0,35.94-4.67,48.26-13.87A58.83,58.83,0,0,1,30.71,344C18,329.5,11.59,308,11.59,280.14S18,230.78,30.71,216.31a58.83,58.83,0,0,1,9.14-8.43C27.53,198.68,11.37,194-8.41,194c-1.13,0-2.24,0-3.34.07-23.5.64-41.69,8.1-54.07,22.23-12.68,14.47-19.11,35.95-19.11,63.83S-78.5,329.5-65.82,344Z"/></g></pattern></defs><rect class="cls-1" width="800" height="800"/><g class="cls-8"><rect class="cls-9" x="-21.05" width="842.11" height="800"/><path class="cls-10" d="M302.74,29.34C285.68,9.87,260.27,0,227.2,0s-58.47,9.87-75.53,29.34c-16.69,19-25.15,47.3-25.15,84s8.46,64.94,25.15,84c17.06,19.47,42.47,29.34,75.53,29.34s58.48-9.87,75.54-29.34c16.69-19,25.15-47.29,25.15-84S319.43,48.38,302.74,29.34Z"/><path class="cls-10" d="M54.48,29.34C37.42,9.87,12,0-21,0S-79.53,9.87-96.59,29.34c-16.68,19-25.15,47.3-25.15,84s8.47,64.94,25.15,84c17.06,19.47,42.48,29.34,75.54,29.34s58.47-9.87,75.53-29.34c16.69-19,25.15-47.29,25.15-84S71.17,48.38,54.48,29.34Z"/><path class="cls-10" d="M896.59,29.34C879.53,9.87,854.11,0,821.05,0s-58.47,9.87-75.53,29.34c-16.69,19-25.15,47.3-25.15,84s8.46,64.94,25.15,84c17.06,19.47,42.47,29.34,75.53,29.34s58.48-9.87,75.54-29.34c16.68-19,25.15-47.29,25.15-84S913.27,48.38,896.59,29.34Z"/><path class="cls-11" d="M497.26,29.34c-16.69,19-25.15,47.3-25.15,84s8.46,64.94,25.15,84a78.41,78.41,0,0,0,12,11.09,78,78,0,0,0,12-11.09c16.68-19,25.14-47.29,25.14-84s-8.46-64.95-25.14-84a78,78,0,0,0-12-11.09A78.41,78.41,0,0,0,497.26,29.34Z"/><path class="cls-10" d="M497.26,197.31c-16.69-19-25.15-47.29-25.15-84s8.46-64.95,25.15-84a78.41,78.41,0,0,1,12-11.09C494.32,7.07,475,1,451.62.12,449.7.05,447.77,0,445.79,0c-33.06,0-58.47,9.87-75.54,29.34-16.68,19-25.14,47.3-25.14,84s8.46,64.94,25.14,84c17.07,19.47,42.48,29.34,75.54,29.34,2,0,3.91,0,5.83-.11,23.39-.87,42.7-6.95,57.67-18.14A78.41,78.41,0,0,1,497.26,197.31Z"/><path class="cls-10" d="M648.33,29.34C632,10.75,608.11.93,577.19.08,575.74,0,574.28,0,572.8,0c-26,0-47.3,6.15-63.51,18.25a78,78,0,0,1,12,11.09c16.68,19,25.14,47.3,25.14,84s-8.46,64.94-25.14,84a78,78,0,0,1-12,11.09c16.21,12.11,37.47,18.25,63.51,18.25,1.48,0,2.94,0,4.39-.08,30.92-.85,54.85-10.66,71.14-29.26,16.69-19,25.15-47.29,25.15-84S665,48.38,648.33,29.34Z"/><path class="cls-10" d="M168.32,574.06c-17.06-19.47-42.47-29.34-75.53-29.34s-58.48,9.87-75.54,29.34c-16.68,19-25.14,47.3-25.14,84S.57,723,17.25,742c17.06,19.47,42.48,29.34,75.54,29.34s58.47-9.87,75.53-29.34c16.69-19,25.15-47.29,25.15-84S185,593.1,168.32,574.06Z"/><path class="cls-10" d="M782.75,574.06c-17.06-19.47-42.48-29.34-75.54-29.34s-58.47,9.87-75.53,29.34c-16.69,19-25.15,47.3-25.15,84S615,723,631.68,742c17.06,19.47,42.47,29.34,75.53,29.34s58.48-9.87,75.54-29.34c16.68-19,25.14-47.29,25.14-84S799.43,593.1,782.75,574.06Z"/><path class="cls-11" d="M367.07,574.06c-16.69,19-25.15,47.3-25.15,84s8.46,64.94,25.15,84a78.41,78.41,0,0,0,12,11.09,77.49,77.49,0,0,0,12-11.09c16.69-19,25.15-47.29,25.15-84s-8.46-64.95-25.15-84a77.49,77.49,0,0,0-12-11.09A78.41,78.41,0,0,0,367.07,574.06Z"/><path class="cls-10" d="M367.07,742c-16.69-19-25.15-47.29-25.15-84s8.46-64.95,25.15-84a78.41,78.41,0,0,1,12-11.09c-15-11.18-34.28-17.27-57.67-18.13-1.92-.07-3.86-.12-5.83-.12-33.06,0-58.47,9.87-75.54,29.34-16.68,19-25.14,47.3-25.14,84s8.46,64.94,25.14,84c17.07,19.47,42.48,29.34,75.54,29.34,2,0,3.91,0,5.83-.11,23.39-.86,42.7-7,57.67-18.14A78.41,78.41,0,0,1,367.07,742Z"/><path class="cls-10" d="M518.14,574.06c-16.29-18.59-40.22-28.41-71.14-29.26-1.45,0-2.91-.08-4.4-.08-26,0-47.29,6.15-63.5,18.25a77.49,77.49,0,0,1,12,11.09c16.69,19,25.15,47.3,25.15,84s-8.46,64.94-25.15,84a77.49,77.49,0,0,1-12,11.09c16.21,12.11,37.47,18.25,63.5,18.25,1.49,0,2.95,0,4.4-.08,30.92-.85,54.85-10.66,71.14-29.26,16.69-19,25.15-47.29,25.15-84S534.83,593.1,518.14,574.06Z"/><path class="cls-10" d="M539.93,284.62c-17.06-19.47-42.47-29.34-75.53-29.34s-58.48,9.87-75.54,29.34c-16.69,19-25.15,47.3-25.15,84s8.46,64.94,25.15,84c17.06,19.47,42.47,29.34,75.54,29.34s58.47-9.87,75.53-29.34c16.69-19,25.15-47.3,25.15-84S556.62,303.66,539.93,284.62Z"/><path class="cls-11" d="M734.45,284.62c-16.69,19-25.15,47.3-25.15,84s8.46,64.94,25.15,84a78.41,78.41,0,0,0,12,11.09,78,78,0,0,0,12-11.09c16.68-19,25.14-47.3,25.14-84s-8.46-64.95-25.14-84a78,78,0,0,0-12-11.09A78.41,78.41,0,0,0,734.45,284.62Z"/><path class="cls-10" d="M734.45,452.59c-16.69-19-25.15-47.3-25.15-84s8.46-64.95,25.15-84a78.41,78.41,0,0,1,12-11.09c-15-11.19-34.28-17.27-57.67-18.13-1.92-.07-3.85-.12-5.83-.12-33.06,0-58.47,9.87-75.54,29.34-16.68,19-25.14,47.3-25.14,84s8.46,64.94,25.14,84c17.07,19.47,42.48,29.34,75.54,29.34,2,0,3.91,0,5.83-.12,23.39-.86,42.7-6.94,57.67-18.13A78.41,78.41,0,0,1,734.45,452.59Z"/><path class="cls-10" d="M885.52,284.62c-16.29-18.59-40.22-28.41-71.14-29.26-1.45,0-2.91-.08-4.39-.08-26,0-47.3,6.15-63.51,18.25a78,78,0,0,1,12,11.09c16.68,19,25.14,47.3,25.14,84s-8.46,64.94-25.14,84a78,78,0,0,1-12,11.09C762.69,475.79,784,481.93,810,481.93c1.48,0,2.94,0,4.39-.08,30.92-.85,54.85-10.66,71.14-29.26,16.69-19,25.15-47.3,25.15-84S902.21,303.66,885.52,284.62Z"/><path class="cls-11" d="M44.62,452.59c16.69-19,25.15-47.3,25.15-84s-8.46-64.95-25.15-84a78,78,0,0,0-12-11.09,77.49,77.49,0,0,0-12,11.09c-16.69,19-25.15,47.3-25.15,84s8.46,64.94,25.15,84a77.49,77.49,0,0,0,12,11.09A78,78,0,0,0,44.62,452.59Z"/><path class="cls-10" d="M44.62,284.62c16.69,19,25.15,47.3,25.15,84s-8.46,64.94-25.15,84a78,78,0,0,1-12,11.09c15,11.19,34.28,17.27,57.67,18.13,1.92.08,3.86.12,5.83.12,33.06,0,58.48-9.87,75.54-29.34,16.68-19,25.14-47.3,25.14-84s-8.46-64.95-25.14-84c-17.06-19.47-42.48-29.34-75.54-29.34-2,0-3.91.05-5.83.12-23.39.86-42.7,6.94-57.67,18.13A78,78,0,0,1,44.62,284.62Z"/><path class="cls-10" d="M-107.66,452.59c16.3,18.6,40.23,28.41,71.14,29.26,1.46,0,2.91.08,4.4.08,26,0,47.3-6.14,63.5-18.25a78.41,78.41,0,0,1-12-11.09c-16.69-19-25.15-47.3-25.15-84s8.46-64.95,25.15-84a78.41,78.41,0,0,1,12-11.09c-16.2-12.1-37.47-18.25-63.5-18.25-1.49,0-2.94,0-4.4.08-30.91.85-54.84,10.67-71.14,29.26-16.68,19-25.14,47.3-25.14,84S-124.34,433.55-107.66,452.59Z"/></g><g class="cls-12"><path class="cls-13" d="M36.77,29.34C19.71,9.87-5.7,0-38.76,0S-97.24,9.87-114.3,29.34c-16.68,19-25.14,47.3-25.14,84s8.46,64.94,25.14,84c17.06,19.47,42.48,29.34,75.54,29.34s58.47-9.87,75.53-29.34c16.69-19,25.15-47.29,25.15-84S53.46,48.38,36.77,29.34Z"/><path class="cls-13" d="M25.71,284.62C9.41,266-14.52,256.21-45.43,255.36c-1.46,0-2.91-.08-4.4-.08-26,0-47.3,6.15-63.5,18.25a78.41,78.41,0,0,1,12,11.09c16.69,19,25.15,47.3,25.15,84s-8.46,64.94-25.15,84a78.41,78.41,0,0,1-12,11.09c16.2,12.11,37.47,18.25,63.5,18.25,1.49,0,2.94,0,4.4-.08,30.91-.85,54.84-10.66,71.14-29.26,16.68-19,25.14-47.3,25.14-84S42.39,303.66,25.71,284.62Z"/></g><rect class="cls-14" x="-859.81" width="800" height="800"/></svg>