<svg id="Layer_1" data-name="Layer 1" xmlns="http://www.w3.org/2000/svg" xmlns:xlink="http://www.w3.org/1999/xlink" viewBox="0 0 800 800"><defs><style>.cls-1{fill:#0073e0;}.cls-2{clip-path:url(#clip-path);}.cls-3,.cls-4{fill:#fff;}.cls-3{opacity:0.1;}.cls-4{opacity:0.25;}</style><clipPath id="clip-path"><rect class="cls-1" width="800" height="800"/></clipPath></defs><rect class="cls-1" width="800" height="800"/><g class="cls-2"><rect class="cls-1" x="-21.05" width="842.11" height="800"/><path class="cls-3" d="M302.74,29.34C285.68,9.87,260.27,0,227.2,0s-58.47,9.87-75.53,29.34c-16.69,19-25.15,47.3-25.15,84s8.46,64.94,25.15,84c17.06,19.47,42.47,29.34,75.53,29.34s58.48-9.87,75.54-29.34c16.69-19,25.15-47.29,25.15-84S319.43,48.38,302.74,29.34Z"/><path class="cls-3" d="M54.48,29.34C37.42,9.87,12,0-21,0S-79.53,9.87-96.59,29.34c-16.68,19-25.15,47.3-25.15,84s8.47,64.94,25.15,84c17.06,19.47,42.48,29.34,75.54,29.34s58.47-9.87,75.53-29.34c16.69-19,25.15-47.29,25.15-84S71.17,48.38,54.48,29.34Z"/><path class="cls-3" d="M896.59,29.34C879.53,9.87,854.11,0,821.05,0s-58.47,9.87-75.53,29.34c-16.69,19-25.15,47.3-25.15,84s8.46,64.94,25.15,84c17.06,19.47,42.47,29.34,75.53,29.34s58.48-9.87,75.54-29.34c16.68-19,25.15-47.29,25.15-84S913.27,48.38,896.59,29.34Z"/><path class="cls-4" d="M497.26,29.34c-16.69,19-25.15,47.3-25.15,84s8.46,64.94,25.15,84a78.41,78.41,0,0,0,12,11.09,78,78,0,0,0,12-11.09c16.68-19,25.14-47.29,25.14-84s-8.46-64.95-25.14-84a78,78,0,0,0-12-11.09A78.41,78.41,0,0,0,497.26,29.34Z"/><path class="cls-3" d="M497.26,197.31c-16.69-19-25.15-47.29-25.15-84s8.46-64.95,25.15-84a78.41,78.41,0,0,1,12-11.09C494.32,7.07,475,1,451.62.12,449.7.05,447.77,0,445.79,0c-33.06,0-58.47,9.87-75.54,29.34-16.68,19-25.14,47.3-25.14,84s8.46,64.94,25.14,84c17.07,19.47,42.48,29.34,75.54,29.34,2,0,3.91,0,5.83-.11,23.39-.87,42.7-6.95,57.67-18.14A78.41,78.41,0,0,1,497.26,197.31Z"/><path class="cls-3" d="M648.33,29.34C632,10.75,608.11.93,577.19.08,575.74,0,574.28,0,572.8,0c-26,0-47.3,6.15-63.51,18.25a78,78,0,0,1,12,11.09c16.68,19,25.14,47.3,25.14,84s-8.46,64.94-25.14,84a78,78,0,0,1-12,11.09c16.21,12.11,37.47,18.25,63.51,18.25,1.48,0,2.94,0,4.39-.08,30.92-.85,54.85-10.66,71.14-29.26,16.69-19,25.15-47.29,25.15-84S665,48.38,648.33,29.34Z"/><path class="cls-3" d="M168.32,574.06c-17.06-19.47-42.47-29.34-75.53-29.34s-58.48,9.87-75.54,29.34c-16.68,19-25.14,47.3-25.14,84S.57,723,17.25,742c17.06,19.47,42.48,29.34,75.54,29.34s58.47-9.87,75.53-29.34c16.69-19,25.15-47.29,25.15-84S185,593.1,168.32,574.06Z"/><path class="cls-3" d="M782.75,574.06c-17.06-19.47-42.48-29.34-75.54-29.34s-58.47,9.87-75.53,29.34c-16.69,19-25.15,47.3-25.15,84S615,723,631.68,742c17.06,19.47,42.47,29.34,75.53,29.34s58.48-9.87,75.54-29.34c16.68-19,25.14-47.29,25.14-84S799.43,593.1,782.75,574.06Z"/><path class="cls-4" d="M367.07,574.06c-16.69,19-25.15,47.3-25.15,84s8.46,64.94,25.15,84a78.41,78.41,0,0,0,12,11.09,77.49,77.49,0,0,0,12-11.09c16.69-19,25.15-47.29,25.15-84s-8.46-64.95-25.15-84a77.49,77.49,0,0,0-12-11.09A78.41,78.41,0,0,0,367.07,574.06Z"/><path class="cls-3" d="M367.07,742c-16.69-19-25.15-47.29-25.15-84s8.46-64.95,25.15-84a78.41,78.41,0,0,1,12-11.09c-15-11.18-34.28-17.27-57.67-18.13-1.92-.07-3.86-.12-5.83-.12-33.06,0-58.47,9.87-75.54,29.34-16.68,19-25.14,47.3-25.14,84s8.46,64.94,25.14,84c17.07,19.47,42.48,29.34,75.54,29.34,2,0,3.91,0,5.83-.11,23.39-.86,42.7-7,57.67-18.14A78.41,78.41,0,0,1,367.07,742Z"/><path class="cls-3" d="M518.14,574.06c-16.29-18.59-40.22-28.41-71.14-29.26-1.45,0-2.91-.08-4.4-.08-26,0-47.29,6.15-63.5,18.25a77.49,77.49,0,0,1,12,11.09c16.69,19,25.15,47.3,25.15,84s-8.46,64.94-25.15,84a77.49,77.49,0,0,1-12,11.09c16.21,12.11,37.47,18.25,63.5,18.25,1.49,0,2.95,0,4.4-.08,30.92-.85,54.85-10.66,71.14-29.26,16.69-19,25.15-47.29,25.15-84S534.83,593.1,518.14,574.06Z"/><path class="cls-3" d="M539.93,284.62c-17.06-19.47-42.47-29.34-75.53-29.34s-58.48,9.87-75.54,29.34c-16.69,19-25.15,47.3-25.15,84s8.46,64.94,25.15,84c17.06,19.47,42.47,29.34,75.54,29.34s58.47-9.87,75.53-29.34c16.69-19,25.15-47.3,25.15-84S556.62,303.66,539.93,284.62Z"/><path class="cls-4" d="M734.45,284.62c-16.69,19-25.15,47.3-25.15,84s8.46,64.94,25.15,84a78.41,78.41,0,0,0,12,11.09,78,78,0,0,0,12-11.09c16.68-19,25.14-47.3,25.14-84s-8.46-64.95-25.14-84a78,78,0,0,0-12-11.09A78.41,78.41,0,0,0,734.45,284.62Z"/><path class="cls-3" d="M734.45,452.59c-16.69-19-25.15-47.3-25.15-84s8.46-64.95,25.15-84a78.41,78.41,0,0,1,12-11.09c-15-11.19-34.28-17.27-57.67-18.13-1.92-.07-3.85-.12-5.83-.12-33.06,0-58.47,9.87-75.54,29.34-16.68,19-25.14,47.3-25.14,84s8.46,64.94,25.14,84c17.07,19.47,42.48,29.34,75.54,29.34,2,0,3.91,0,5.83-.12,23.39-.86,42.7-6.94,57.67-18.13A78.41,78.41,0,0,1,734.45,452.59Z"/><path class="cls-3" d="M885.52,284.62c-16.29-18.59-40.22-28.41-71.14-29.26-1.45,0-2.91-.08-4.39-.08-26,0-47.3,6.15-63.51,18.25a78,78,0,0,1,12,11.09c16.68,19,25.14,47.3,25.14,84s-8.46,64.94-25.14,84a78,78,0,0,1-12,11.09C762.69,475.79,784,481.93,810,481.93c1.48,0,2.94,0,4.39-.08,30.92-.85,54.85-10.66,71.14-29.26,16.69-19,25.15-47.3,25.15-84S902.21,303.66,885.52,284.62Z"/><path class="cls-4" d="M44.62,452.59c16.69-19,25.15-47.3,25.15-84s-8.46-64.95-25.15-84a78,78,0,0,0-12-11.09,77.49,77.49,0,0,0-12,11.09c-16.69,19-25.15,47.3-25.15,84s8.46,64.94,25.15,84a77.49,77.49,0,0,0,12,11.09A78,78,0,0,0,44.62,452.59Z"/><path class="cls-3" d="M44.62,284.62c16.69,19,25.15,47.3,25.15,84s-8.46,64.94-25.15,84a78,78,0,0,1-12,11.09c15,11.19,34.28,17.27,57.67,18.13,1.92.08,3.86.12,5.83.12,33.06,0,58.48-9.87,75.54-29.34,16.68-19,25.14-47.3,25.14-84s-8.46-64.95-25.14-84c-17.06-19.47-42.48-29.34-75.54-29.34-2,0-3.91.05-5.83.12-23.39.86-42.7,6.94-57.67,18.13A78,78,0,0,1,44.62,284.62Z"/><path class="cls-3" d="M-107.66,452.59c16.3,18.6,40.23,28.41,71.14,29.26,1.46,0,2.91.08,4.4.08,26,0,47.3-6.14,63.5-18.25a78.41,78.41,0,0,1-12-11.09c-16.69-19-25.15-47.3-25.15-84s8.46-64.95,25.15-84a78.41,78.41,0,0,1,12-11.09c-16.2-12.1-37.47-18.25-63.5-18.25-1.49,0-2.94,0-4.4.08-30.91.85-54.84,10.67-71.14,29.26-16.68,19-25.14,47.3-25.14,84S-124.34,433.55-107.66,452.59Z"/></g></svg>