<svg id="Logo" xmlns="http://www.w3.org/2000/svg" viewBox="0 0 332.5 296.76"><defs><style>.cls-1,.cls-3,.cls-5,.cls-7{fill:#1c4593;}.cls-2,.cls-6,.cls-8,.cls-9{fill:none;}.cls-2,.cls-3,.cls-5,.cls-6,.cls-7,.cls-8,.cls-9{stroke:#1c4593;}.cls-2,.cls-3,.cls-4,.cls-5,.cls-6,.cls-7,.cls-8,.cls-9{stroke-miterlimit:10;}.cls-2{stroke-width:3px;}.cls-3{stroke-width:0.24px;}.cls-4{fill:#231f20;stroke:#231f20;}.cls-4,.cls-5{stroke-width:0.2px;}.cls-6{stroke-width:1.06px;}.cls-7{stroke-width:0.35px;}.cls-8{stroke-width:1.45px;}.cls-9{stroke-width:1.45px;}</style></defs><title>STAR_Center</title><g id="Writing"><g id="Smaller_Platt_Chinese" data-name="Smaller Platt Chinese"><path class="cls-1" d="M74.32,286.12l5.17-.32a3.94,3.94,0,0,0,.68,1.92,2.87,2.87,0,0,0,2.4,1.07,2.66,2.66,0,0,0,1.79-.54A1.63,1.63,0,0,0,85,287a1.62,1.62,0,0,0-.6-1.22,7,7,0,0,0-2.78-1,11.82,11.82,0,0,1-5.1-2.13A4.29,4.29,0,0,1,75,279.2a4.61,4.61,0,0,1,.79-2.56,5.21,5.21,0,0,1,2.36-1.89,11,11,0,0,1,4.32-.69,8.84,8.84,0,0,1,5.14,1.25,5.41,5.41,0,0,1,2.1,4l-5.12.3a2.39,2.39,0,0,0-2.66-2.27,2.18,2.18,0,0,0-1.43.4,1.23,1.23,0,0,0-.48,1,1,1,0,0,0,.4.76,4.46,4.46,0,0,0,1.82.65,22.76,22.76,0,0,1,5.1,1.55,5.36,5.36,0,0,1,2.24,1.95,4.94,4.94,0,0,1,.7,2.6,5.58,5.58,0,0,1-.93,3.12,5.85,5.85,0,0,1-2.61,2.16,10.56,10.56,0,0,1-4.23.74q-4.48,0-6.21-1.73A6.8,6.8,0,0,1,74.32,286.12Z" transform="translate(-3.23 -4.34)"/><path class="cls-1" d="M91.76,274.36h16.51v4.34h-5.54v13.24H97.3V278.7H91.76Z" transform="translate(-3.23 -4.34)"/><path class="cls-1" d="M119.87,289H113.7l-.86,2.9H107.3l6.61-17.58h5.92l6.6,17.58h-5.69Zm-1.13-3.8-1.94-6.32-1.92,6.32Z" transform="translate(-3.23 -4.34)"/><path class="cls-1" d="M128.23,291.93V274.36h9.05a13.13,13.13,0,0,1,3.85.43,4.09,4.09,0,0,1,2.15,1.6,5,5,0,0,1-1.52,7.09,6.55,6.55,0,0,1-1.91.7,3.68,3.68,0,0,1,2.28,1.57,6.85,6.85,0,0,1,.76,1.09l2.63,5.09h-6.14l-2.9-5.37a4.1,4.1,0,0,0-1-1.35,2.28,2.28,0,0,0-1.33-.41h-.48v7.13Zm5.46-10.45H136a8.19,8.19,0,0,0,1.44-.24,1.43,1.43,0,0,0,.88-.55,1.78,1.78,0,0,0-.2-2.33,3.27,3.27,0,0,0-2-.46h-2.39Z" transform="translate(-3.23 -4.34)"/><path class="cls-1" d="M167.15,284.74l4.76,1.44a8.78,8.78,0,0,1-1.51,3.34,6.55,6.55,0,0,1-2.56,2,9.56,9.56,0,0,1-3.89.68,11.29,11.29,0,0,1-4.68-.83,7.42,7.42,0,0,1-3.13-2.93,9.93,9.93,0,0,1-1.32-5.37q0-4.36,2.32-6.7a10.56,10.56,0,0,1,11.79-1,7.89,7.89,0,0,1,2.82,4.12l-4.8,1.07a4.09,4.09,0,0,0-.53-1.18,3.14,3.14,0,0,0-1.11-1,3.43,3.43,0,0,0-4.3,1.15,6.31,6.31,0,0,0-.74,3.46q0,2.92.89,4a3.5,3.5,0,0,0,4.85.21A5.41,5.41,0,0,0,167.15,284.74Z" transform="translate(-3.23 -4.34)"/><path class="cls-1" d="M174.53,274.36h14.55v3.75H180v2.79h8.45v3.58H180V288h9.38v4H174.53Z" transform="translate(-3.23 -4.34)"/><path class="cls-1" d="M192.31,274.36h5.07l6.62,9.72v-9.72h5.12v17.58H204l-6.58-9.65v9.65h-5.11Z" transform="translate(-3.23 -4.34)"/><path class="cls-1" d="M211.49,274.36H228v4.34h-5.54v13.24H217V278.7h-5.54Z" transform="translate(-3.23 -4.34)"/><path class="cls-1" d="M230.45,274.36H245v3.75h-9.11v2.79h8.45v3.58h-8.45V288h9.38v4H230.45Z" transform="translate(-3.23 -4.34)"/><path class="cls-1" d="M248.26,291.93V274.36h9.05a13.13,13.13,0,0,1,3.85.43,4.09,4.09,0,0,1,2.15,1.6,5,5,0,0,1-1.52,7.09,6.55,6.55,0,0,1-1.91.7,3.68,3.68,0,0,1,2.28,1.57,6.85,6.85,0,0,1,.76,1.09l2.63,5.09h-6.14l-2.9-5.37a4.1,4.1,0,0,0-1-1.35,2.28,2.28,0,0,0-1.33-.41h-.48v7.13Zm5.46-10.45H256a8.19,8.19,0,0,0,1.44-.24,1.43,1.43,0,0,0,.88-.55,1.78,1.78,0,0,0-.2-2.33,3.27,3.27,0,0,0-2-.46h-2.39Z" transform="translate(-3.23 -4.34)"/><path class="cls-2" d="M37.91,170.67A131.57,131.57,0,0,1,170.42,39.1c71.78.5,130.33,59.23,130.63,131a130.94,130.94,0,0,1-23.49,75.6,50,50,0,0,1-41.06,21.44h-134a49.92,49.92,0,0,1-41-21.3A130.93,130.93,0,0,1,37.91,170.67Z" transform="translate(-3.23 -4.34)"/><path class="cls-3" d="M45.59,248.45l-1.18-1.52q1.78-1.44.86-3a2,2,0,0,0-1.12-1,1.49,1.49,0,0,0-1.25.15,1.26,1.26,0,0,0-.5.51,1.3,1.3,0,0,0-.12.7,14.83,14.83,0,0,0,.38,1.82,6,6,0,0,1,.24,2,3.12,3.12,0,0,1-.53,1.39,3.55,3.55,0,0,1-1.16,1.09,3.45,3.45,0,0,1-1.72.52,2.88,2.88,0,0,1-1.63-.44,4.16,4.16,0,0,1-1.32-1.44,3.36,3.36,0,0,1,1.18-5l1.1,1.63a2.12,2.12,0,0,0-.86,1.16,1.78,1.78,0,0,0,.3,1.24,2,2,0,0,0,.91.88,1,1,0,0,0,.92-.05,1,1,0,0,0,.5-.75,5.48,5.48,0,0,0-.29-1.9,7.3,7.3,0,0,1-.32-2.29,3.08,3.08,0,0,1,.53-1.49,4.28,4.28,0,0,1,1.38-1.23,3.71,3.71,0,0,1,2.71-.52A3.81,3.81,0,0,1,47,243Q48.87,246,45.59,248.45Z" transform="translate(-3.23 -4.34)"/><path class="cls-3" d="M32.89,242.39l3.85-2a3.22,3.22,0,0,1-1.31-.42,2.25,2.25,0,0,1-.82-.89,2.19,2.19,0,0,1-.26-1.45,2.42,2.42,0,0,1,.74-1.3,8,8,0,0,1,1.72-1.1l4.46-2.33.86,1.65-4,2.1a5.69,5.69,0,0,0-1.66,1.09,1,1,0,0,0,0,1.1,1.28,1.28,0,0,0,1,.72,4.1,4.1,0,0,0,2.1-.65l3.81-2,.86,1.65L33.75,244Z" transform="translate(-3.23 -4.34)"/><path class="cls-3" d="M34.6,232.7l.36,1.69a3.28,3.28,0,0,1-2.12-.15,3.16,3.16,0,0,1-1.36-1.61,3.92,3.92,0,0,1-.45-1.78,2,2,0,0,1,.45-1.18,5.48,5.48,0,0,1,1.77-1.1l2.42-1.08a11.07,11.07,0,0,0,1.47-.77,5.66,5.66,0,0,0,.92-.78l.76,1.67-.75.61a3.42,3.42,0,0,1,1.2.58,2.45,2.45,0,0,1,.74.93,2.22,2.22,0,0,1,.07,1.82,2.58,2.58,0,0,1-1.4,1.36,2.84,2.84,0,0,1-1.26.28,2.18,2.18,0,0,1-1.1-.32,5,5,0,0,1-1.17-1.17,8.82,8.82,0,0,0-1.25-1.41,2.72,2.72,0,0,0-.81.48.79.79,0,0,0-.18.49,1.66,1.66,0,0,0,.19.75,1.24,1.24,0,0,0,.53.62A1.65,1.65,0,0,0,34.6,232.7Zm.65-3a9.49,9.49,0,0,1,.77.87,2.57,2.57,0,0,0,.93.82,1,1,0,0,0,.76-.05,1.22,1.22,0,0,0,.63-.61.94.94,0,0,0,0-.81,1.37,1.37,0,0,0-.57-.6,1.45,1.45,0,0,0-.81-.22,4.12,4.12,0,0,0-1.29.43Z" transform="translate(-3.23 -4.34)"/><path class="cls-3" d="M35.29,218.93l.68,1.74-4.08,1.6a9.14,9.14,0,0,0-1.59.74,1.19,1.19,0,0,0-.48.61,1,1,0,0,0,0,.69,1.32,1.32,0,0,0,.59.68,1.6,1.6,0,0,0,1,.19,8.63,8.63,0,0,0,1.93-.59L37,223.16l.68,1.74-8,3.13L29,226.42l1.16-.46a3.39,3.39,0,0,1-1.39-.57,2.35,2.35,0,0,1-.81-1.06,2.22,2.22,0,0,1-.11-1.44,2.17,2.17,0,0,1,.73-1.12,6.64,6.64,0,0,1,1.71-.9Z" transform="translate(-3.23 -4.34)"/><path class="cls-3" d="M35.36,217.47,35,215.35a.94.94,0,0,0,.54-.49,1.25,1.25,0,0,0-.06-.8,2.13,2.13,0,0,0-.5-.88,1,1,0,0,0-.59-.24,3.38,3.38,0,0,0-1.18.24l-1.19.39a3.23,3.23,0,0,1,1.28.57,2.07,2.07,0,0,1,.69,1,2.39,2.39,0,0,1-.39,2.2,5.3,5.3,0,0,1-2.83,1.9,5.33,5.33,0,0,1-3.42.21,2.58,2.58,0,0,1-1.72-1.65,2.14,2.14,0,0,1,0-1.24,3.17,3.17,0,0,1,.7-1.24l-1.14.38L24.61,214l7.31-2.41a7.67,7.67,0,0,1,2.65-.52,2.52,2.52,0,0,1,1.52.6,3.8,3.8,0,0,1,1,1.73,4.66,4.66,0,0,1,.29,1.85,2.28,2.28,0,0,1-.54,1.29,2.69,2.69,0,0,1-1.22.79Zm-5.3,0a3.56,3.56,0,0,0,1.77-1,1.27,1.27,0,0,0,.27-1.21,1.4,1.4,0,0,0-1-.89,3.24,3.24,0,0,0-2,.16,3.45,3.45,0,0,0-1.74,1.05,1.35,1.35,0,0,0-.26,1.27,1.3,1.3,0,0,0,.94.85A3.42,3.42,0,0,0,30.06,217.47Z" transform="translate(-3.23 -4.34)"/><path class="cls-3" d="M20.42,211.18l4.19-1.12a3.21,3.21,0,0,1-1.19-.7,2.25,2.25,0,0,1-.61-1,2.2,2.2,0,0,1,.07-1.47,2.43,2.43,0,0,1,1-1.11,8.11,8.11,0,0,1,1.92-.7l4.86-1.3.48,1.8-4.38,1.17a5.67,5.67,0,0,0-1.85.71,1,1,0,0,0-.27,1.06,1.28,1.28,0,0,0,.85.93,4.1,4.1,0,0,0,2.19-.18l4.15-1.11.48,1.8L20.9,213Z" transform="translate(-3.23 -4.34)"/><path class="cls-3" d="M24.19,202.07v1.73a3.27,3.27,0,0,1-2-.6,3.16,3.16,0,0,1-1-1.87,3.93,3.93,0,0,1,0-1.83,2,2,0,0,1,.7-1.05,5.5,5.5,0,0,1,2-.69l2.6-.53a11.23,11.23,0,0,0,1.61-.43,5.68,5.68,0,0,0,1.07-.56l.38,1.8-.87.43a3.45,3.45,0,0,1,1,.82,2.46,2.46,0,0,1,.52,1.07,2.21,2.21,0,0,1-.33,1.79,2.57,2.57,0,0,1-1.66,1,2.83,2.83,0,0,1-1.3,0,2.17,2.17,0,0,1-1-.55,5,5,0,0,1-.88-1.4,8.84,8.84,0,0,0-.92-1.65,2.74,2.74,0,0,0-.9.29.78.78,0,0,0-.28.44,1.66,1.66,0,0,0,0,.78,1.25,1.25,0,0,0,.38.72A1.64,1.64,0,0,0,24.19,202.07Zm1.29-2.81a9,9,0,0,1,.56,1,2.6,2.6,0,0,0,.73,1,1,1,0,0,0,.75.11,1.22,1.22,0,0,0,.75-.46,1,1,0,0,0,.17-.79,1.35,1.35,0,0,0-.43-.71,1.46,1.46,0,0,0-.74-.39,4.15,4.15,0,0,0-1.35.13Z" transform="translate(-3.23 -4.34)"/><path class="cls-3" d="M19.28,196.69l-2.07.36-.32-1.84,2.07-.36ZM28.87,195l-8.45,1.45-.32-1.84,8.45-1.45Z" transform="translate(-3.23 -4.34)"/><path class="cls-3" d="M28,189.38l-9.75,1.27.37,2.86-2,.26-1-7.64,2-.26.37,2.85,9.75-1.27Z" transform="translate(-3.23 -4.34)"/><path class="cls-3" d="M24.33,180.77l.22-1.87a3.65,3.65,0,0,1,2,1,3,3,0,0,1,.78,1.85,2.93,2.93,0,0,1-.84,2.49,5.18,5.18,0,0,1-3.3,1.28,5.45,5.45,0,0,1-3.52-.72,2.68,2.68,0,0,1-1.27-2.11,2.81,2.81,0,0,1,.91-2.45,6.08,6.08,0,0,1,3.67-1.3h.26l.39,4.64a2.57,2.57,0,0,0,1.54-.59,1.32,1.32,0,0,0,.47-1.11C25.6,181.26,25.16,180.9,24.33,180.77Zm-2.3.09a2.49,2.49,0,0,0-1.47.55,1.2,1.2,0,0,0-.42,1,1.21,1.21,0,0,0,.61.95,2.35,2.35,0,0,0,1.52.28Z" transform="translate(-3.23 -4.34)"/><path class="cls-3" d="M20.57,171.46l.46,1.82q-1.34.25-1.3,1.32a1.31,1.31,0,0,0,.62,1.09,3.46,3.46,0,0,0,2,.35,4.08,4.08,0,0,0,2.15-.49,1.29,1.29,0,0,0,.59-1.15,1.14,1.14,0,0,0-.39-.85,2.43,2.43,0,0,0-1.29-.44l.32-1.84q3.12.46,3.21,3.15A2.81,2.81,0,0,1,25.69,177a5.76,5.76,0,0,1-3.12.94,5.2,5.2,0,0,1-3.39-.83,3.31,3.31,0,0,1-.65-4.46A3.76,3.76,0,0,1,20.57,171.46Z" transform="translate(-3.23 -4.34)"/><path class="cls-3" d="M14.81,168.08l4.34.08a3.2,3.2,0,0,1-.95-1,2.24,2.24,0,0,1-.3-1.17,2.2,2.2,0,0,1,.47-1.4,2.42,2.42,0,0,1,1.28-.78,8,8,0,0,1,2-.14l5,.09,0,1.86-4.53-.08a5.64,5.64,0,0,0-2,.17,1,1,0,0,0-.55.95,1.28,1.28,0,0,0,.56,1.13,4.09,4.09,0,0,0,2.15.44l4.3.08,0,1.86-11.83-.22Z" transform="translate(-3.23 -4.34)"/><path class="cls-3" d="M27.85,150.37l-.21,2.11-2.75.58-.39,3.86L27.08,158l-.21,2.07-11.39-4.95.21-2.06Zm-5,3.12-4.5.89,4.24,1.75Z" transform="translate(-3.23 -4.34)"/><path class="cls-3" d="M28.73,145.18,27.47,145a3,3,0,0,1,.91,1.18,2.44,2.44,0,0,1,.18,1.36,2.15,2.15,0,0,1-1.71,1.81,5.41,5.41,0,0,1-2,0l-5.36-.87.3-1.84,3.89.63a15.78,15.78,0,0,0,2.13.26,1.18,1.18,0,0,0,.76-.26,1,1,0,0,0,.36-.65,1.32,1.32,0,0,0-.18-.9A1.54,1.54,0,0,0,26,145a12.32,12.32,0,0,0-2.21-.49l-3.57-.58.3-1.84L29,143.46Z" transform="translate(-3.23 -4.34)"/><path class="cls-3" d="M21.62,136.92l1.77.37-.26,1.24,3.39.7a7.59,7.59,0,0,0,1.29.21.45.45,0,0,0,.41-.39,2,2,0,0,0-.06-.77l1.76.2a3.11,3.11,0,0,1,0,1.5,1.78,1.78,0,0,1-.56,1,1.67,1.67,0,0,1-1.07.36,10,10,0,0,1-1.89-.28l-3.66-.76-.17.84-1.77-.37L21,140l-1.67-.35-.92-2.09,3,.62Z" transform="translate(-3.23 -4.34)"/><path class="cls-3" d="M25.84,137a5.19,5.19,0,0,1-2.1-1,3.69,3.69,0,0,1-1.18-1.65,3.29,3.29,0,0,1-.06-1.89,3.11,3.11,0,0,1,1.94-2.25,5.13,5.13,0,0,1,3.25-.18,5.55,5.55,0,0,1,2.2,1.08,3.8,3.8,0,0,1,1.23,1.68,3.19,3.19,0,0,1,.08,1.87,3.29,3.29,0,0,1-1.8,2.23A5.06,5.06,0,0,1,25.84,137Zm.58-1.82a3.21,3.21,0,0,0,2,0,1.51,1.51,0,0,0,.95-1,1.47,1.47,0,0,0-.36-1.33,3.29,3.29,0,0,0-1.8-1,3.19,3.19,0,0,0-2,0,1.5,1.5,0,0,0-1,1,1.48,1.48,0,0,0,.35,1.34A3.24,3.24,0,0,0,26.43,135.17Z" transform="translate(-3.23 -4.34)"/><path class="cls-3" d="M24,127.46l.53-1.63,1.11.36a3.45,3.45,0,0,1-.66-1.28,2.19,2.19,0,0,1,0-1.23,2,2,0,0,1,.69-1,2.43,2.43,0,0,1,1.23-.45,3.55,3.55,0,0,1-.66-1.27,2.09,2.09,0,0,1,0-1.19,2.19,2.19,0,0,1,.71-1.07,2.13,2.13,0,0,1,1.18-.45,5.33,5.33,0,0,1,2,.36l5.21,1.71-.58,1.77-4.66-1.53a4.21,4.21,0,0,0-1.69-.32.79.79,0,0,0-.64.59A1.15,1.15,0,0,0,28,122,4.79,4.79,0,0,0,30.09,123L34,124.33l-.58,1.77L29,124.64a6.43,6.43,0,0,0-1.76-.42.79.79,0,0,0-.76.61,1.19,1.19,0,0,0,0,.81,1.52,1.52,0,0,0,.61.73,7.15,7.15,0,0,0,1.65.7l4,1.3-.58,1.77Z" transform="translate(-3.23 -4.34)"/><path class="cls-3" d="M30.89,115.44l-1,1.43a3.28,3.28,0,0,1-1.35-1.64,3.16,3.16,0,0,1,.23-2.1,3.91,3.91,0,0,1,1-1.55,2,2,0,0,1,1.17-.49,5.48,5.48,0,0,1,2,.53l2.45,1a11.4,11.4,0,0,0,1.57.54,5.64,5.64,0,0,0,1.2.13L37.49,115l-1-.13a3.47,3.47,0,0,1,.41,1.27,2.45,2.45,0,0,1-.17,1.18,2.2,2.2,0,0,1-1.27,1.3,2.56,2.56,0,0,1-1.95-.08,2.84,2.84,0,0,1-1.08-.72,2.16,2.16,0,0,1-.52-1,4.92,4.92,0,0,1,0-1.65,8.86,8.86,0,0,0,.16-1.88,2.76,2.76,0,0,0-.91-.26.79.79,0,0,0-.48.21,1.67,1.67,0,0,0-.42.65,1.23,1.23,0,0,0-.08.81A1.63,1.63,0,0,0,30.89,115.44Zm2.64-1.61a9.34,9.34,0,0,1-.1,1.15,2.59,2.59,0,0,0,0,1.24,1,1,0,0,0,.56.51,1.21,1.21,0,0,0,.88,0,.94.94,0,0,0,.59-.56,1.35,1.35,0,0,0,0-.83,1.45,1.45,0,0,0-.4-.74A4.17,4.17,0,0,0,34,114Z" transform="translate(-3.23 -4.34)"/><path class="cls-3" d="M32.2,105.77l1.65.74-.52,1.15,3.15,1.42a7.59,7.59,0,0,0,1.21.48.45.45,0,0,0,.48-.29,2,2,0,0,0,.11-.77l1.67.58a3.09,3.09,0,0,1-.29,1.47,1.78,1.78,0,0,1-.78.9,1.67,1.67,0,0,1-1.13.12,10.08,10.08,0,0,1-1.79-.68l-3.41-1.54-.35.78-1.65-.74.35-.78-1.55-.7-.44-2.24,2.76,1.24Z" transform="translate(-3.23 -4.34)"/><path class="cls-3" d="M31.75,104l-1.89-.92.81-1.68,1.89.92Zm8.76,4.25-7.71-3.74.81-1.68,7.71,3.74Z" transform="translate(-3.23 -4.34)"/><path class="cls-3" d="M37.94,103.4a5.21,5.21,0,0,1-1.79-1.53,3.69,3.69,0,0,1-.75-1.89,3.29,3.29,0,0,1,.4-1.84,3.12,3.12,0,0,1,2.43-1.72,5.14,5.14,0,0,1,3.2.62,5.53,5.53,0,0,1,1.87,1.58,3.78,3.78,0,0,1,.79,1.93,3.2,3.2,0,0,1-.38,1.84,3.29,3.29,0,0,1-2.28,1.72A5.07,5.07,0,0,1,37.94,103.4Zm1-1.62a3.21,3.21,0,0,0,2,.48,1.51,1.51,0,0,0,1.17-.77,1.47,1.47,0,0,0,0-1.38,3.29,3.29,0,0,0-1.51-1.38,3.19,3.19,0,0,0-2-.47,1.5,1.5,0,0,0-1.17.76,1.48,1.48,0,0,0,0,1.38A3.24,3.24,0,0,0,39,101.78Z" transform="translate(-3.23 -4.34)"/><path class="cls-3" d="M49.18,92.64l-1,1.59-3.74-2.28a9.27,9.27,0,0,0-1.55-.82,1.2,1.2,0,0,0-.78,0,1,1,0,0,0-.54.43,1.32,1.32,0,0,0-.18.88,1.61,1.61,0,0,0,.43.89,8.6,8.6,0,0,0,1.64,1.18l3.32,2-1,1.59-7.31-4.47.9-1.47,1.07.65a3.4,3.4,0,0,1-.39-1.45,2.36,2.36,0,0,1,.36-1.28,2.21,2.21,0,0,1,1.08-1A2.16,2.16,0,0,1,42.87,89a6.67,6.67,0,0,1,1.76.82Z" transform="translate(-3.23 -4.34)"/><path class="cls-3" d="M48,83.72l-1.29,1.15A3.28,3.28,0,0,1,45.84,83a3.17,3.17,0,0,1,.73-2,3.92,3.92,0,0,1,1.32-1.26,2,2,0,0,1,1.25-.19,5.5,5.5,0,0,1,1.83,1l2.14,1.57a11.11,11.11,0,0,0,1.4.9,5.65,5.65,0,0,0,1.13.41l-1.08,1.49-.9-.35a3.44,3.44,0,0,1,.09,1.33A2.44,2.44,0,0,1,53.31,87a2.21,2.21,0,0,1-1.54,1,2.57,2.57,0,0,1-1.87-.55,2.83,2.83,0,0,1-.87-1,2.17,2.17,0,0,1-.26-1.12,5,5,0,0,1,.44-1.59,8.74,8.74,0,0,0,.6-1.78,2.75,2.75,0,0,0-.82-.47.79.79,0,0,0-.51.09,1.67,1.67,0,0,0-.56.53,1.24,1.24,0,0,0-.28.77A1.64,1.64,0,0,0,48,83.72Zm3-.93a9.4,9.4,0,0,1-.37,1.1,2.57,2.57,0,0,0-.26,1.21,1,1,0,0,0,.42.63,1.21,1.21,0,0,0,.84.25.94.94,0,0,0,.71-.4,1.35,1.35,0,0,0,.24-.79,1.46,1.46,0,0,0-.21-.81,4.13,4.13,0,0,0-1-.91Z" transform="translate(-3.23 -4.34)"/><path class="cls-3" d="M60.34,77.54,59.17,79l-3.41-2.75a9.22,9.22,0,0,0-1.43-1,1.2,1.2,0,0,0-.77-.12,1,1,0,0,0-.59.36,1.34,1.34,0,0,0-.3.85,1.61,1.61,0,0,0,.32.94,8.59,8.59,0,0,0,1.47,1.38l3,2.44-1.17,1.45-6.67-5.39,1.09-1.34,1,.79a3.42,3.42,0,0,1-.2-1.49A2.35,2.35,0,0,1,52,73.87a2.22,2.22,0,0,1,1.19-.8,2.17,2.17,0,0,1,1.34.08,6.61,6.61,0,0,1,1.63,1Z" transform="translate(-3.23 -4.34)"/><path class="cls-3" d="M65.69,71.56l-1.16,1.28L63.6,72a3.16,3.16,0,0,1,.14,1.48,2.22,2.22,0,0,1-.53,1.13,2.53,2.53,0,0,1-2.25.73,5.55,5.55,0,0,1-3.08-1.6A5.42,5.42,0,0,1,56,70.88a2.56,2.56,0,0,1,.58-2.31,2.15,2.15,0,0,1,1-.62,3.1,3.1,0,0,1,1.29-.1L55.67,65l1.25-1.38Zm-6.64.68a5.69,5.69,0,0,0,1.42,1,1.8,1.8,0,0,0,1,.16,1.3,1.3,0,0,0,.77-.42,1.28,1.28,0,0,0,.22-1.23,3.58,3.58,0,0,0-1.18-1.68A3.94,3.94,0,0,0,59.42,69a1.27,1.27,0,0,0-1.49,1.63A3.35,3.35,0,0,0,59.05,72.23Z" transform="translate(-3.23 -4.34)"/><path class="cls-3" d="M69.25,67.91l-8.07-8.65,3-2.81a5.74,5.74,0,0,1,1.87-1.31,2.51,2.51,0,0,1,1.57,0,3.83,3.83,0,0,1,1.6,1.08,3.52,3.52,0,0,1,1,2.09,3,3,0,0,1-.66,2.07,4.89,4.89,0,0,1,1.44,0,14,14,0,0,1,2.13.64l2.44.88-1.71,1.59-2.79-.92a17,17,0,0,0-2-.57,1.54,1.54,0,0,0-.75,0,2.65,2.65,0,0,0-.81.57l-.29.27,3.37,3.61ZM66,61.58l1.06-1a7.23,7.23,0,0,0,1.16-1.24,1.08,1.08,0,0,0,.11-.75,1.73,1.73,0,0,0-.48-.84,1.62,1.62,0,0,0-.78-.51,1.15,1.15,0,0,0-.77.07,7.77,7.77,0,0,0-1.22,1l-1.12,1Z" transform="translate(-3.23 -4.34)"/><path class="cls-3" d="M73,58.42A5.19,5.19,0,0,1,72,56.33a3.68,3.68,0,0,1,0-2,3.29,3.29,0,0,1,1.07-1.55,3.12,3.12,0,0,1,2.9-.67,5.14,5.14,0,0,1,2.73,1.78A5.55,5.55,0,0,1,79.82,56a3.8,3.8,0,0,1,0,2.08,3.2,3.2,0,0,1-1,1.56,3.29,3.29,0,0,1-2.77.73A5.07,5.07,0,0,1,73,58.42Zm1.55-1.12a3.22,3.22,0,0,0,1.65,1.2,1.51,1.51,0,0,0,1.37-.27,1.47,1.47,0,0,0,.5-1.29,3.28,3.28,0,0,0-.87-1.85,3.19,3.19,0,0,0-1.63-1.18,1.5,1.5,0,0,0-1.37.26,1.48,1.48,0,0,0-.5,1.29A3.23,3.23,0,0,0,74.59,57.3Z" transform="translate(-3.23 -4.34)"/><path class="cls-3" d="M82.29,56.56l-7-9.53,1.5-1.1,2.52,3.43a3.1,3.1,0,0,1,.22-1.28,2.14,2.14,0,0,1,.71-.89,2.56,2.56,0,0,1,2.36-.34A5.4,5.4,0,0,1,85.24,49a5.54,5.54,0,0,1,1.28,3.23,2.54,2.54,0,0,1-1,2.17,2.2,2.2,0,0,1-1.18.4,3.08,3.08,0,0,1-1.45-.28l.75,1Zm-1.16-4.7A5.23,5.23,0,0,0,82.3,53.1a1.91,1.91,0,0,0,1,.36,1.3,1.3,0,0,0,.84-.24,1.25,1.25,0,0,0,.46-1.14,3.71,3.71,0,0,0-.86-1.9,3.9,3.9,0,0,0-1.61-1.44,1.28,1.28,0,0,0-1.8,1.3A3.34,3.34,0,0,0,81.13,51.86Z" transform="translate(-3.23 -4.34)"/><path class="cls-3" d="M86,48.38a5.18,5.18,0,0,1-.84-2.2,3.67,3.67,0,0,1,.25-2,3.28,3.28,0,0,1,1.24-1.43,3.12,3.12,0,0,1,3-.34,5.14,5.14,0,0,1,2.51,2.07A5.55,5.55,0,0,1,93,46.75a3.79,3.79,0,0,1-.23,2.07,3.21,3.21,0,0,1-1.21,1.43,3.29,3.29,0,0,1-2.83.42A5.07,5.07,0,0,1,86,48.38Zm1.66-.94a3.21,3.21,0,0,0,1.5,1.37,1.51,1.51,0,0,0,1.39-.11,1.47,1.47,0,0,0,.64-1.22,3.29,3.29,0,0,0-.67-1.93,3.19,3.19,0,0,0-1.5-1.35,1.44,1.44,0,0,0-2,1.33A3.24,3.24,0,0,0,87.68,47.44Z" transform="translate(-3.23 -4.34)"/><path class="cls-3" d="M93.94,38.49,94.86,40l-1.09.65,1.77,3a7.65,7.65,0,0,0,.71,1.09.45.45,0,0,0,.56,0,2,2,0,0,0,.53-.57l1,1.43a3.09,3.09,0,0,1-1.08,1,1.78,1.78,0,0,1-1.15.29,1.67,1.67,0,0,1-1-.55,9.94,9.94,0,0,1-1.07-1.58l-1.91-3.22-.74.44-.92-1.55.74-.44-.87-1.46.93-2.09,1.54,2.6Z" transform="translate(-3.23 -4.34)"/><path class="cls-3" d="M94.56,36.81l-1-1.83,1.63-.91,1,1.83Zm4.73,8.5-4.17-7.49,1.63-.91,4.17,7.49Z" transform="translate(-3.23 -4.34)"/><path class="cls-3" d="M105.13,35.42l-1.45,1.19q-.79-1.11-1.75-.62a1.31,1.31,0,0,0-.73,1,3.44,3.44,0,0,0,.51,1.94,4.08,4.08,0,0,0,1.35,1.74,1.29,1.29,0,0,0,1.29.05A1.14,1.14,0,0,0,105,40a2.43,2.43,0,0,0-.14-1.35l1.8-.49q.9,3-1.5,4.24a2.81,2.81,0,0,1-2.87,0A5.76,5.76,0,0,1,100.1,40a5.21,5.21,0,0,1-.68-3.42,3.31,3.31,0,0,1,3.77-2.47A3.76,3.76,0,0,1,105.13,35.42Z" transform="translate(-3.23 -4.34)"/><path class="cls-3" d="M107.28,38.39l1.56-1.07a1.42,1.42,0,0,0,1.92.62,1.61,1.61,0,0,0,.81-.64.81.81,0,0,0,0-.75.64.64,0,0,0-.31-.35,1.34,1.34,0,0,0-.67,0,8.26,8.26,0,0,1-3.13.13A2.39,2.39,0,0,1,106,34.9a2.52,2.52,0,0,1-.09-2.06,3.08,3.08,0,0,1,1.72-1.55,3.47,3.47,0,0,1,2.13-.36,2.94,2.94,0,0,1,1.63,1.17L110,33.17a1.22,1.22,0,0,0-1.63-.41,1.81,1.81,0,0,0-.81.58.6.6,0,0,0-.06.59.55.55,0,0,0,.43.32,7.4,7.4,0,0,0,1.75-.14,4.55,4.55,0,0,1,2.36.11,2.4,2.4,0,0,1,1.17,1.29,2.71,2.71,0,0,1,.06,2.22,3.28,3.28,0,0,1-1.82,1.69,3.52,3.52,0,0,1-2.31.29A3.24,3.24,0,0,1,107.28,38.39Z" transform="translate(-3.23 -4.34)"/><path class="cls-3" d="M123.27,30l2,.07a5.31,5.31,0,0,1-.44,3.23,3.7,3.7,0,0,1-2.1,1.7,3.76,3.76,0,0,1-3.38-.37,7.06,7.06,0,0,1-2.78-3.85,7.4,7.4,0,0,1-.27-4.92,3.88,3.88,0,0,1,2.53-2.45,3.68,3.68,0,0,1,2.95.16,4.82,4.82,0,0,1,1.85,1.84L122,26.52a2.62,2.62,0,0,0-1.18-1.15,1.86,1.86,0,0,0-1.4-.06,2.08,2.08,0,0,0-1.35,1.46,5.39,5.39,0,0,0,.37,3.14,5.74,5.74,0,0,0,1.67,2.79,2,2,0,0,0,1.93.33,1.78,1.78,0,0,0,1.07-1A3.82,3.82,0,0,0,123.27,30Z" transform="translate(-3.23 -4.34)"/><path class="cls-3" d="M130.93,29.36l1.88-.14a3.66,3.66,0,0,1-.59,2.16,3,3,0,0,1-1.66,1.12,2.93,2.93,0,0,1-2.6-.35,5.18,5.18,0,0,1-1.89-3,5.45,5.45,0,0,1,0-3.59,2.69,2.69,0,0,1,1.83-1.65,2.82,2.82,0,0,1,2.58.43,6.1,6.1,0,0,1,2,3.36l.06.25-4.48,1.27a2.57,2.57,0,0,0,.87,1.4,1.32,1.32,0,0,0,1.18.25Q131,30.62,130.93,29.36Zm-.53-2.24a2.49,2.49,0,0,0-.82-1.34,1.2,1.2,0,0,0-1.06-.23,1.21,1.21,0,0,0-.81.78,2.35,2.35,0,0,0,0,1.54Z" transform="translate(-3.23 -4.34)"/><path class="cls-3" d="M141,29.74l-1.82.41-1-4.27a9.15,9.15,0,0,0-.49-1.69,1.19,1.19,0,0,0-.53-.57,1,1,0,0,0-.69-.09,1.32,1.32,0,0,0-.76.48,1.6,1.6,0,0,0-.34.93,8.58,8.58,0,0,0,.29,2l.86,3.79-1.82.41-1.89-8.36,1.68-.38.28,1.22a3.39,3.39,0,0,1,.77-1.29,2.35,2.35,0,0,1,1.17-.64,2.21,2.21,0,0,1,1.43.11,2.16,2.16,0,0,1,1,.89,6.62,6.62,0,0,1,.63,1.83Z" transform="translate(-3.23 -4.34)"/><path class="cls-3" d="M144.19,20.45l.32,1.78-1.25.23.62,3.4a7.53,7.53,0,0,0,.29,1.27.45.45,0,0,0,.51.24,2,2,0,0,0,.69-.35l.47,1.7a3.09,3.09,0,0,1-1.38.59,1.78,1.78,0,0,1-1.18-.13,1.67,1.67,0,0,1-.74-.86,10.06,10.06,0,0,1-.45-1.86l-.67-3.68-.84.15-.32-1.78.84-.15-.3-1.68,1.6-1.63.54,3Z" transform="translate(-3.23 -4.34)"/><path class="cls-3" d="M150.42,25.44l1.88.12a3.66,3.66,0,0,1-.88,2.06,3,3,0,0,1-1.8.88,2.93,2.93,0,0,1-2.53-.7,5.18,5.18,0,0,1-1.46-3.23,5.45,5.45,0,0,1,.52-3.55,2.68,2.68,0,0,1,2-1.39,2.82,2.82,0,0,1,2.5.78,6.1,6.1,0,0,1,1.5,3.59l0,.26-4.61.64a2.57,2.57,0,0,0,.67,1.5,1.32,1.32,0,0,0,1.13.41Q150.3,26.7,150.42,25.44Zm-.22-2.29a2.48,2.48,0,0,0-.63-1.44,1.18,1.18,0,0,0-1.93.29,2.36,2.36,0,0,0-.19,1.53Z" transform="translate(-3.23 -4.34)"/><path class="cls-3" d="M155.77,27.58l-1.86.18-.82-8.53,1.72-.17.12,1.21a3.69,3.69,0,0,1,.68-1.21,1.25,1.25,0,0,1,.78-.36,2,2,0,0,1,1.25.31l-.39,2a1.42,1.42,0,0,0-.9-.29,1,1,0,0,0-.65.35,1.91,1.91,0,0,0-.32,1.07,19.31,19.31,0,0,0,.13,2.76Z" transform="translate(-3.23 -4.34)"/><path class="cls-3" d="M172.21,21a2.34,2.34,0,1,1-3.51-2A2.36,2.36,0,0,1,171,19a2.28,2.28,0,0,1,.86.86A2.31,2.31,0,0,1,172.21,21Z" transform="translate(-3.23 -4.34)"/><path class="cls-1" d="M185.62,16.89l.17-2.11,2.38.27-.31,2.09L187.53,20l3.24.37,2.05.16-.26,2.27-2-.28-3.25-.37L186.62,28l4.84.55,2.05.18-.25,2.2-2-.28-11.74-1.34-1.79-.15L178,27l1.78.26,4.63.53Z" transform="translate(-3.23 -4.34)"/><path class="cls-1" d="M197,30.15a7.29,7.29,0,0,0,.64-.64l.78-.93c.22-.31.52-.7.85-1.2a9.59,9.59,0,0,0,.67-1l.23-.49c.61.81.94,1.24,1,1.29l.36.36c-.15.22-.26.37-.34.48l-1.09,1.63a21.37,21.37,0,0,1-1.7,2.18l-.6.7c-.1-.24-.24-.5-.38-.79a8.19,8.19,0,0,0-.87-1.2C196.69,30.39,196.83,30.28,197,30.15Zm2.16-8a7.38,7.38,0,0,0,.93-.85c1,1.26,1.65,2.07,1.95,2.48l-.31.3-.79.65-.44.45a11.19,11.19,0,0,0-.89-1.35,15.5,15.5,0,0,0-1.06-1.27C198.73,22.39,198.94,22.26,199.12,22.13ZM202,17c.67.81,1.3,1.68,1.92,2.58-.14.11-.39.32-.75.65l-.81.7c-.17-.28-.37-.62-.6-1a17.8,17.8,0,0,0-1.36-1.78A6.81,6.81,0,0,0,202,17Zm1.16,4.27a4.1,4.1,0,0,0,1.28-1c.49-.51.85-.91,1.11-1.21s.5-.69.77-1.11a10.33,10.33,0,0,0,1.81,1.17c-.29.36-.59.69-.87,1l5.71,1.46,2.2.49-.47,1.84-2.17-.59-6.7-1.71a11.46,11.46,0,0,0-.85.78l1.52.44,5.2,1.33,1.91.42-.45,1.41c-.16.56-.27.9-.29,1L212.48,28l1.49.34-.47,1.84L212,29.81c-.08.25-.15.45-.2.57l-.27.86-.2.57,1.31.28-.45,1.76-1.36-.38c-.15.22-.28.46-.45.7a2.57,2.57,0,0,1-.63.69,2.44,2.44,0,0,1-1.13.46,8.55,8.55,0,0,1-2.71-.33c0-.29,0-.56,0-.82a6.8,6.8,0,0,0-.28-1.4c.75.28,1.13.42,1.18.43a3.54,3.54,0,0,0,1,.14c.43,0,.68,0,.79-.2l.14-.2-5.88-1.5-1.7-.38c.17-.3.3-.54.4-.7l.47-1c.21-.47.4-.86.53-1.14l.32-.75-1.54-.36.47-1.84,1.71.47c.09-.23.16-.41.21-.53s.17-.45.34-1,.3-.81.31-.85l.26-.81a7.44,7.44,0,0,1-.89.64l-.54.33c-.14-.31-.27-.58-.38-.84a7.28,7.28,0,0,0-.7-1C202.42,21.61,202.75,21.44,203.12,21.26Zm3.54,9.35c-.08-.18-.14-.36-.22-.55s-.32-.59-.73-1.27a2.07,2.07,0,0,0,.38-.08l.62-.15.21,0L204.74,28l-.84,1.95Zm.85-3.83a10.91,10.91,0,0,0-.81-1.37A7.7,7.7,0,0,0,208,25l-1.86-.47-.68,1.75Zm2.38,3.33.25-.77-2.44-.62c.22.36.52,1,.94,1.78a11.46,11.46,0,0,0-1.12.33l1.94.5C209.65,30.85,209.79,30.45,209.89,30.11Zm.76-2.53.53-1.79-2.61-.67c.19.32.5.87.93,1.69l-.78.27Z" transform="translate(-3.23 -4.34)"/><path class="cls-1" d="M218.33,31.55a14,14,0,0,0,1.38-1,7.25,7.25,0,0,0,.79-.76l.43-.49-1.45-.59-1.29-.48.74-1.83,1.25.57,1.45.59.57-1.4.16-.39c-.54-.12-1-.25-1.53-.39l-.89-.25c.13-.92.2-1.48.22-1.66l0-.41a14.82,14.82,0,0,0,3.6,1.14,16.18,16.18,0,0,0,2.78.27,16.75,16.75,0,0,0,.29,2.28,5.79,5.79,0,0,1-.68-.14l-1.21-.26-.63-.12-.84,2.07.82.33,1.1.39-.74,1.83-1.06-.47-.81-.33-.66,1.63a2,2,0,0,0,.48-.07l.91-.24c.1.36.18.63.22.81l.27,1.27.15.67-.66.19a5.78,5.78,0,0,1-.84.23l5.4,1,3-7.29.62-1.71,2,.79L232.8,29,230,36l1,.16,1.2.14-.75,1.86-.91-.24-1.23-.2-1.08,2.66-.71,1.88-2-.79.82-1.83.93-2.3-4.37-.84-1.73-.23.53-2,.45.11a3,3,0,0,0,0-.39c0-.1-.05-.34-.13-.76a4,4,0,0,0-.22-.81l-1.93,4.75-.65,1.73-1.93-.78.76-1.69,1.3-3.2-1,.56c-.3.18-1,.5-2,.95,0-1.17,0-1.78-.05-1.88l-.06-.56A5.92,5.92,0,0,0,218.33,31.55Zm7.85-1.18c.56,1.14,1,2.12,1.38,3l-.47.23-1,.52-.45.22a18.42,18.42,0,0,0-.86-2.33l-.45-.87A11.21,11.21,0,0,0,226.18,30.37Zm2-3.82c.14.36.25.64.35.83l.41.87.57,1.22a11.41,11.41,0,0,0-1.9,1c-.2-.59-.39-1.09-.55-1.5a16.75,16.75,0,0,0-.81-1.66A9.76,9.76,0,0,0,228.15,26.55Z" transform="translate(-3.23 -4.34)"/><path class="cls-1" d="M236.61,38.38a11.3,11.3,0,0,0,1.51.28l1.43-2.49-1.21-.69-1.1-.59,1-1.71,1.09.69,1.18.67.91-1.59.69-1.27,1.82,1L243.11,34l-.88,1.54.44.25.88.44-1,1.71-.85-.53-.43-.25-1.09,1.89c.57.1,1.16.18,1.71.23-.16.24-.33.46-.49.67l-.28.42-.27.51c-.5,0-1-.11-1.6-.21l-2.37,4.14a2.56,2.56,0,0,1-.9,1.07,1.48,1.48,0,0,1-.83.09,8.27,8.27,0,0,1-2-.79,15.27,15.27,0,0,0,.53-1.63l.14-.59a4.35,4.35,0,0,0,.88.55.52.52,0,0,0,.46.08.73.73,0,0,0,.31-.33l1.64-2.85c-.27-.06-.48-.08-.63-.1l-.84-.1-.69-.11a2.17,2.17,0,0,1,.09-.54l.18-.77.16-.84C235.84,38.14,236.27,38.27,236.61,38.38Zm5.3,5.19c0-.67.11-1.36.22-2.08a7.33,7.33,0,0,0,1.18.21l-.81-.46-1-.5,1-1.67,1,.61,1.63.94.88-1.54-1.5-.86-1.22-.66,1-1.71,1.21.76,1.47.84.65-1.13.62-1.19,1.89,1.09-.67,1.1-.67,1.18,2.27,1.3,1.25.66-1,1.71-1.13-.69-2.35-1.35-.88,1.54L249.18,43l.11,1-1,1c-.31.27-.75.6-1.34,1a9.7,9.7,0,0,1-1.57.93l-.94.47a6.09,6.09,0,0,0,.37.9,8,8,0,0,0,.71,1.14,8.75,8.75,0,0,0,1.32,1.49l-.69.39c-.2.11-.62.37-1.23.77a24.6,24.6,0,0,1-1.49-2.11,14.85,14.85,0,0,1-.91-2.1,14.81,14.81,0,0,1-2.5.19,7.43,7.43,0,0,1-1.73-.14l-1-.2c0-.18,0-.39,0-.6a10.6,10.6,0,0,0-.13-1.76c.34.15.67.28,1,.41a8.47,8.47,0,0,0,1.53.33,7.54,7.54,0,0,0,2.21-.11C241.91,45,241.89,44.21,241.91,43.57Zm2.16-1.44a7,7,0,0,0-.22,2.12l.08,1.16q.82-.38,1.36-.68a11.05,11.05,0,0,0,1.43-1.08Z" transform="translate(-3.23 -4.34)"/><path class="cls-1" d="M252.33,53.11a5.4,5.4,0,0,0,2.95,0,7.2,7.2,0,0,0,2.19-.94A7.47,7.47,0,0,0,258.89,51l.78-.84c-1.76-1.44-2.9-2.34-3.45-2.74l-1.66-1.19,1.22-1.59,1.67,1.32,3.46,2.66c.72-.91,1.15-1.47,1.28-1.66l1.13-1.53c.8.72,1.23,1.12,1.28,1.14l.53.41-.77.94L262.7,50l3.54,2.72L268,53.95l-1.25,1.63L265,54.24l-3.54-2.72-.5.74a5.77,5.77,0,0,0-.4,1,13.59,13.59,0,0,0-.34,1.6,13.16,13.16,0,0,0,0,2.57,5.7,5.7,0,0,0,.75,2.69,17.19,17.19,0,0,0,1.32,1.75l-.71.29a5.25,5.25,0,0,0-.93.57l-.53.37c-.25-.39-.61-1-1.06-1.83a8.37,8.37,0,0,1-.91-3.14,9.14,9.14,0,0,1-.1-2.56l.23-1.4c-.46.25-.91.46-1.37.66a6.63,6.63,0,0,1-1.95.46,10.85,10.85,0,0,1-2.91-.11,25.54,25.54,0,0,1-2.8-.57c.06-.22.12-.44.17-.69a10.76,10.76,0,0,0,.09-1.79A18.76,18.76,0,0,0,252.33,53.11Z" transform="translate(-3.23 -4.34)"/><path class="cls-1" d="M267.36,61.55l1.28,1.39,2.71,2.74a3.16,3.16,0,0,0,0-.58,7.59,7.59,0,0,0,1.65.29l-1.2-1.21-1.31-1.23,1.38-1.36,1.21,1.3,4.86,4.9L277.62,69a5,5,0,0,1-.75.07,16.82,16.82,0,0,1-2.33-.2l2.5,2.52,1.34,1.25-1.45,1.44-1.31-1.4-3-3a6.14,6.14,0,0,1-.45.65,7.75,7.75,0,0,1-.56.63,2.64,2.64,0,0,1-1,.71,1.52,1.52,0,0,1-1.33,0,4.58,4.58,0,0,1-1.19-.7c-.29-.26-.62-.6-1-1,.16-.24.3-.45.44-.63a3.88,3.88,0,0,0,.26-.58l.28-.72c.27.3.51.54.67.75s.28.31.37.4c.31.29.58.39.81.29a2.49,2.49,0,0,0,.65-.42,1.7,1.7,0,0,0,.38-.5l.11-.39-3.82-3.85L265.91,63Zm3.58-3,.8-.84,1.31,1.4L274,60a11.52,11.52,0,0,0,.75-2.9l.09-.93a13.45,13.45,0,0,0,1.55.42l.6,0a30.07,30.07,0,0,1-.59,3.06l-.24.86A13,13,0,0,0,274,60.1l5.3,5.35a8.62,8.62,0,0,0-.42-1.42c.45,0,.82-.1,1.11-.16a7.33,7.33,0,0,0,1.12-.32,7,7,0,0,0,1-.38l1-.49a15.14,15.14,0,0,0,1,2.18c-.35.12-.65.25-.94.33s-.72.25-1.36.43-1.07.29-1.28.33l-.62.1.92.93,1.49,1.43-.9.84-1.12,1.12-.83.87L278,69.67l1-1,.49-.48-7.6-7.66-.55.55-.84.9-1.54-1.55,1-1Zm2.22,8.39a13.18,13.18,0,0,0,1.41.07L273,65.46A8.85,8.85,0,0,1,273.16,66.93Zm6.22-4.68-.46,1.06a16.21,16.21,0,0,0-2.06-1c.2-.32.36-.61.51-.86s.29-.58.48-1a15.82,15.82,0,0,0,.63-1.79,11.92,11.92,0,0,0,2,.85C279.91,61,279.54,61.89,279.38,62.25Z" transform="translate(-3.23 -4.34)"/><path class="cls-1" d="M289.66,73.4l1.67,2.2.74-.27,1.3-.59a21,21,0,0,0,1,2.11c-.61.22-1.17.42-1.66.61l2.13,2.82,1.3,1.66-1.45,1-8.09,6.12L285,90.41l-1.27-1.68.24-.18-4.9-6.48-.22.17-1.31-1.73,1.66-1.19,8.11-6.14,1.39-1.11Zm-4.14,14L287.28,86l-4.91-6.49-1.75,1.33Zm3.21-2.43,1.56-1.18-4.91-6.49-1.56,1.18Zm3-2.3,1.53-1.16L288.41,75l-1.53,1.16Z" transform="translate(-3.23 -4.34)"/><path class="cls-1" d="M297.73,90.07l2.43,4.32.8,1.32-1.73,1-.75-1.4-1-1.72,0,.83q-2.08,0-2.67,0l-1.91-.1a11.5,11.5,0,0,0,.78,1.1l1,1.17.67-.9.56-.84c.57.51.95.82,1.12.95l.46.29-.56.86-1.17,1.83-.55.85-.54-.28-.92-.45-.49-.27.37-.53c-1.65-1.92-2.6-3-2.85-3.26L290,94l1.39-1.73a10.68,10.68,0,0,0,1.06.19,9.07,9.07,0,0,0,1.69.06,9.86,9.86,0,0,0,1.86-.18l.76-.16L296.1,91l-.68-1.13,1.73-1Zm4.7,5.19.46.93.32.57c.38-.22.69-.39,1-.52l1.07-.6,1.14-.66a13.49,13.49,0,0,0,1.11,1.94c-.78.38-1.23.61-1.35.68l-1.94.93,1.23,2.19.73,1.2-1.33.69-3.78,2c-1.17.66-2,1.13-2.64,1.44a7.37,7.37,0,0,1-1.65.65,3.14,3.14,0,0,1-1.29,0,2.67,2.67,0,0,1-1.05-.58,10.52,10.52,0,0,1-1.31-1.5l.47-.42a16.06,16.06,0,0,0,1.19-1.33,5.73,5.73,0,0,0,1,1.4,1.16,1.16,0,0,0,.66.2,2.09,2.09,0,0,0,.84-.19c.32-.14.79-.39,1.41-.72l2.56-1.36,2.14-1.22-.93-1.62-2.18,1.08a26.08,26.08,0,0,1-2.5,1,9.54,9.54,0,0,1-2.6.54,4.37,4.37,0,0,1-2.29-.47,16.26,16.26,0,0,1-2.24-1.36,6.5,6.5,0,0,0,.8-1.34l.29-.75a6.82,6.82,0,0,0,1.4,1.23,5.18,5.18,0,0,0,2.09.64c.93.14,2.65-.46,5.15-1.79l1.09-.57-.3-.54-.49-.83Zm-1.17-7.94.58,1.11,2.05,3.65.63,1-1.76,1L302.19,93l-2.05-3.65-.64-1.07Z" transform="translate(-3.23 -4.34)"/><path class="cls-1" d="M312.85,110.91c-1.72-.06-2.82-.1-3.28-.16l-.84-.1.12.29-1.42.48-7,2.78-2.12.91-.79-2,2.16-.8,5.89-2.33-1-.31a9.33,9.33,0,0,1-1.35-.58,12.29,12.29,0,0,0,1.61-2c.28.17.63.39,1.09.65a6.4,6.4,0,0,0,2.14.61,21.19,21.19,0,0,0,2.55.22,13.05,13.05,0,0,0,1.57,0l.91-.09A15.81,15.81,0,0,0,312.85,110.91Zm-5.2,3.42.51.61,4.55-1.8,1.52-.66.84,2.13-1.56.54-3.65,1.44a22.67,22.67,0,0,0,1.86,1.4,22.11,22.11,0,0,0,2,1.11,9,9,0,0,0-1.18,2.13l-.38-.3c-.08-.06-.55-.39-1.37-.93a37.47,37.47,0,0,1-3.13-2.55l-4.52,1.79a.92.92,0,0,0-.46.33c-.08.14.06.64.39,1.47a2.12,2.12,0,0,0,.82,1.15,1.42,1.42,0,0,0,.75.18,4,4,0,0,0,.66-.15,1.27,1.27,0,0,1,.36-.09l.55-.2c0,.22,0,.49-.08.77a9.07,9.07,0,0,0,.25,1.59c-.31.07-.63.12-.94.2l-1.22.18a2.73,2.73,0,0,1-1.4-.2,2.6,2.6,0,0,1-1-1,15.64,15.64,0,0,1-1-2.3,4.84,4.84,0,0,1-.49-2.38,1.32,1.32,0,0,1,.44-.85,3.82,3.82,0,0,1,.54-.27l4.73-1.87c-.44-.49-.84-.93-1.18-1.35a10,10,0,0,0,1.35-1.18l.38-.49A11.69,11.69,0,0,0,307.65,114.33Z" transform="translate(-3.23 -4.34)"/><path class="cls-1" d="M320,129.57l.19.77-.87.07-1.06.1,1.67,6.78.56,2-2.08.51-.42-2-1.72-7-2.27.34,2,8.17.54,1.91-1.91.4-2.47.55a15.36,15.36,0,0,1-2.34.37,4.69,4.69,0,0,1-1.43-.07,2.65,2.65,0,0,1-1.06-.61,3.71,3.71,0,0,1-.81-1.25,11.62,11.62,0,0,1-.59-2c.2-.07.44-.18.76-.3a4.6,4.6,0,0,0,.83-.47l.49-.36a7.29,7.29,0,0,0,.22,1.27,2.15,2.15,0,0,0,.62,1.28,1.33,1.33,0,0,0,.85.23,6.62,6.62,0,0,0,1.12-.09l1-.18c.29-.05.69-.15,1.2-.28l.85-.21-2.5-10.2,1.42-.17,5.62-.82,1.33-.27C319.87,129,319.94,129.48,320,129.57Zm-8.23,9.27-2,.5-.43-2-1.86-7.59-.48-1.75,2-.5.36,1.78,1.86,7.55Z" transform="translate(-3.23 -4.34)"/><path class="cls-1" d="M314.32,146.72a8.47,8.47,0,0,0,1,.51c.42.17.87.32,1.36.48a7.84,7.84,0,0,0,1.11.25l.9.12-.14-1.28-.15-1.06,2-.21.07,1,.16,1.47,1.59-.17,1.67-.23.22,2.06-1.71.11-1.57.17.11,1,.14,1-2,.21-.07-1-.11-1-2,.21a8.22,8.22,0,0,0,.82.89c-.55.47-1,.83-1.34,1.1l-.74.54-.53.37a4.47,4.47,0,0,0-.46-.46l-.48-.5-.55-.56c.89-.47,1.39-.73,1.47-.79l.54-.45-5.39.57-2,.28-.22-2.07,2-.16,3.61-.38c-.21-.14-.53-.35-1-.61a8.07,8.07,0,0,1-1-.67l-.52-.41a14.16,14.16,0,0,0,1.53-.91l.51-.39A5.65,5.65,0,0,0,314.32,146.72Zm9.44,6.7.41,3.9.16,1.15-1.49.09-11,1.17c-.39,0-.49.18-.34.43a.53.53,0,0,0,.32.21c.15,0,.34.07.61.11s.46,0,.6,0l.69,0a19.77,19.77,0,0,0-.57,2.13l-1-.14c-.39,0-.81-.09-1.22-.15a1.75,1.75,0,0,1-1-.49,2.19,2.19,0,0,1-.51-1.34c-.14-1.14-.09-1.83.13-2.08a1,1,0,0,1,.61-.4l12.17-1.29-.23-2.17c-1.1.13-2.12.24-3,.34s-1.8.21-2.7.29-1.6.13-2.18.16a8.8,8.8,0,0,1-1.78-.06,4.9,4.9,0,0,1-1.8-.59,8.72,8.72,0,0,1-2-1.56,14.46,14.46,0,0,0,1.32-1.91c.19.28.4.59.67.92a2.4,2.4,0,0,0,1,.78,4.6,4.6,0,0,0,1.38.38,8,8,0,0,0,1.57.1c.57,0,1.29-.07,2.18-.16L319,153c.57-.1,1.53-.23,2.89-.43l1.74-.27Z" transform="translate(-3.23 -4.34)"/><path class="cls-1" d="M315.59,167a7.55,7.55,0,0,0,.56,1.41,9.34,9.34,0,0,0,1,1.7l.06-2,0-1.9,2,.05-.1,1.9-.1,3.76a4.1,4.1,0,0,0,.83.6l.33.15.07-.77.1-3.54v-1.21l1.3.09,2.06.06h1.39l-.07,1.14-.1,3.6v1.2l-1.19-.07-2.27-.06h-1.13a11.46,11.46,0,0,0-.53,1.87l-.86-.55-.06,2.3a10.48,10.48,0,0,0,.71-1c.15.23.34.47.53.7l0-.69v-1l1.28.07,2.27.06h1.2l-.07,1.11-.1,3.62v1.11l-1.19-.09-2.27-.06-1.29,0,.07-1.11,0-1.46c-.24.26-.45.52-.64.76a5.09,5.09,0,0,0-.6-.63l0,1.71v1.72l-2-.05.12-1.72.06-2.29c-.25.26-.45.48-.62.67a4.51,4.51,0,0,0-.52,1,6.32,6.32,0,0,0-.68,3l-.92-.34c-.26-.09-.68-.19-1.22-.33q.2-.55.4-1.2l-2.94-.08h-1.27l.05-1.86h.23l.06-2.13h-.32l.05-1.88,1.2.07,2.78.08h1.32l0,1.09-.06,2.3a7.68,7.68,0,0,1,1.88-2.31l.7-.51.06-2.16a12.11,12.11,0,0,1-2.41-3.22l-.07,2.57v1l-1.18-.07-2.81-.06-1.3,0,.05-1.92h.28l.06-2.09h-.28l.05-2,1.3.07,2.87.08a11.18,11.18,0,0,1-.32-1.19,8.36,8.36,0,0,0,1.38-.42l.55-.3C315.38,166.09,315.49,166.6,315.59,167Zm-4.43,11.37,1.62,0,.06-2.13-1.62,0Zm.19-7.09,1.62,0,.06-2.09-1.62,0Zm11.73,7.5.06-2.13-1.3,0-.06,2.13Zm-1.1-7.49,1.3,0,.06-2.18-1.3,0Z" transform="translate(-3.23 -4.34)"/><path class="cls-1" d="M306.5,199.35l-.37-.22a22.27,22.27,0,0,1,2.29-2.53,8.82,8.82,0,0,1,2.54-1.66,10.65,10.65,0,0,1,2.29-.8l1.27-.27-.76-.36a11.34,11.34,0,0,1-1-.63,7.29,7.29,0,0,1-1.25-1.11,9.25,9.25,0,0,1-1.28-1.79c-.43-.77-.74-1.35-.94-1.79s-.47-1.15-.82-2.17c.21-.07.43-.14.64-.23s.76-.38,1.62-.86a12,12,0,0,0,.91,3.25,6,6,0,0,0,2.17,2.78,10.54,10.54,0,0,0,2.38,1.26c.66.22,1.34.4,2.1.58s1.52.32,2.37.46,1.37.24,1.58.26l1.14.15a14.89,14.89,0,0,0-.48,2.38c-.76-.18-1.33-.29-1.69-.35a8.08,8.08,0,0,0-.92-.15c-.3,0-.7-.08-1.21-.13l-1.46,0c-.5,0-1,.05-1.48.11a18,18,0,0,0-2.39.56,8.61,8.61,0,0,0-3.13,1.72,10.92,10.92,0,0,0-2.54,3.1A9.93,9.93,0,0,0,306.5,199.35Z" transform="translate(-3.23 -4.34)"/><path class="cls-1" d="M312.26,206l3.68,1.13,1.66.46L317,209.3l-1.24,4,1,.32,2.06.56-.72,2.34-2-.68-1-.32-1.26,4.12-.48,1.79-1.63-.57L308,219.77l-2-.54.7-2.27.26.12,1.12-3.65-3.31-1-1.93-.54.72-2.34,1.9.66,3.31,1,1.1-3.58-.25,0,.68-2.21ZM312,218.6l1.12-3.65-2.93-.9L309,217.7Zm-1.13-6.77,2.93.9,1.1-3.58-2.93-.9Z" transform="translate(-3.23 -4.34)"/><path class="cls-1" d="M294.39,236.07a8.71,8.71,0,0,1-1-1,3.71,3.71,0,0,1-.69-1.08,2.28,2.28,0,0,1-.11-1.34,17.84,17.84,0,0,1,1.38-3.27c1-2,1.8-3.09,2.4-3.17a3.9,3.9,0,0,1,2.13.46l7.3,3.5,2.52,1.11-1.21,2.53-2.43-1.26-6.77-3.25a1,1,0,0,0-.74-.09,1,1,0,0,0-.46.41c-.11.19-.37.72-.78,1.57a3.25,3.25,0,0,0-.54,1.73,1.48,1.48,0,0,0,.34.65,6.36,6.36,0,0,0,1.09.86l.86.63a11,11,0,0,0-2.12,2Zm8.22,2.34c0,.22.12.86.33,2-.83.16-2.07.37-3.73.54s-2.68.32-3,.33l-.8.05c-.06-.22-.18-.69-.36-1.36s-.28-1.18-.36-1.48c.87,0,2.11-.05,3.7-.17s2.75-.28,3.46-.43l.78-.16C302.61,237.95,302.59,238.18,302.61,238.41Zm.28-15.45a16.78,16.78,0,0,0,2.18,1.82,30.8,30.8,0,0,0,2.63,1.75l.86.49-.52.58c-.13.18-.5.73-1.08,1.69-1.51-1-2.81-1.88-3.91-2.68a30.9,30.9,0,0,1-3.06-2.53c.34-.25.62-.48.9-.71a9.82,9.82,0,0,0,1.2-1.29C302.27,222.27,302.52,222.56,302.88,223Zm8.78,11.3c0,.17.33.79.82,1.88a66.55,66.55,0,0,1-6,2.88l-.24-.41-.85-1.57-.26-.47a51.72,51.72,0,0,0,6.39-2.86C311.56,233.92,311.61,234.11,311.66,234.26Z" transform="translate(-3.23 -4.34)"/><polygon class="cls-1" points="124.08 59.27 128.93 77.82 147.42 72.75 133.78 86.22 147.42 99.69 128.93 94.62 124.08 113.17 119.23 94.62 100.74 99.69 114.38 86.22 100.74 72.75 119.23 77.82 124.08 59.27"/><path class="cls-2" d="M88.46,299.6h162A54.89,54.89,0,0,0,291,281.85,164.14,164.14,0,0,0,334.23,170.7c.06-91.51-75.46-166-167-164.84A164.74,164.74,0,0,0,48,281.84,54.9,54.9,0,0,0,88.46,299.6Z" transform="translate(-3.23 -4.34)"/></g></g><g id="System"><g id="Arm"><path class="cls-4" d="M272.73,118.4" transform="translate(-3.23 -4.34)"/><path class="cls-4" d="M272.73,118.4" transform="translate(-3.23 -4.34)"/><path class="cls-1" d="M182.09,139.91a15.84,15.84,0,1,0-12.85,18.35A15.84,15.84,0,0,0,182.09,139.91ZM168,151.3a8.78,8.78,0,1,1,7.12-10.17A8.78,8.78,0,0,1,168,151.3Z" transform="translate(-3.23 -4.34)"/><circle class="cls-1" cx="166.49" cy="142.66" r="4.41" transform="translate(-25.47 26.74) rotate(-10)"/><path class="cls-1" d="M214.09,85.32a11.58,11.58,0,1,0-9.39,13.42A11.58,11.58,0,0,0,214.09,85.32ZM203.8,93.65a6.42,6.42,0,1,1,5.2-7.43A6.42,6.42,0,0,1,203.8,93.65Z" transform="translate(-3.23 -4.34)"/><circle class="cls-1" cx="202.68" cy="87.33" r="3.23" transform="translate(-15.31 32.18) rotate(-10)"/><circle class="cls-1" cx="239.39" cy="117.55" r="2.94" transform="translate(-5.51 0.42) rotate(-1.13)"/><path class="cls-1" d="M234.81,107.3l-19-15.6a13.88,13.88,0,0,1-6.35,7.73l19,15.6A11.21,11.21,0,0,1,234.81,107.3Z" transform="translate(-3.23 -4.34)"/><path class="cls-1" d="M249,117.36a9.59,9.59,0,1,0-9.4,9.78A9.59,9.59,0,0,0,249,117.36Zm-9.48,5.5a5.31,5.31,0,1,1,5.21-5.42A5.31,5.31,0,0,1,239.5,122.86Z" transform="translate(-3.23 -4.34)"/><path class="cls-5" d="M263.75,134.89l-12.16,4.55-5.12-17a8.64,8.64,0,0,1-3.91,3.1l6.95,17.53,16.83-6.72Z" transform="translate(-3.23 -4.34)"/><path class="cls-5" d="M266.52,113.29l-18.63,2.93a8.43,8.43,0,0,1-.69,4.94l17.24-4.22,2.26,12.79,2.59,1.48Z" transform="translate(-3.23 -4.34)"/><path class="cls-1" d="M166.49,161.16a18.39,18.39,0,0,1-8-1.84v25.43h16V159.33A18.39,18.39,0,0,1,166.49,161.16Z" transform="translate(-3.23 -4.34)"/><path class="cls-1" d="M181.4,131.74l20-30.56a13.9,13.9,0,0,1-10.88-7.11l-20,30.55A18.49,18.49,0,0,1,181.4,131.74Z" transform="translate(-3.23 -4.34)"/></g><g id="GearsFilled"><path class="cls-1" d="M175.11,197.51a9.33,9.33,0,0,0,0-2.22l-2.55-.25a6.19,6.19,0,0,0-.82-2l1.73-2.1a9,9,0,0,0-1.47-1.62l-2.18,1.8a6.19,6.19,0,0,0-2-.82l-.29-3a8.07,8.07,0,0,0-2.14,0l-.29,3a6.19,6.19,0,0,0-2,.82l-2.18-1.8a9,9,0,0,0-1.47,1.62l1.73,2.1a6.19,6.19,0,0,0-.82,2l-2.55.25a9.33,9.33,0,0,0,0,2.22l2.55.25a6.19,6.19,0,0,0,.82,2l-1.73,2.1a9,9,0,0,0,1.47,1.62l2.18-1.8a6.19,6.19,0,0,0,2,.82l.29,3a8.07,8.07,0,0,0,2.14,0l.29-3a6.19,6.19,0,0,0,2-.82l2.18,1.8a9,9,0,0,0,1.47-1.62l-1.73-2.1a6.19,6.19,0,0,0,.82-2Zm-8.63,1.3a2.8,2.8,0,1,1,2.8-2.8A2.8,2.8,0,0,1,166.48,198.81Z" transform="translate(-3.23 -4.34)"/><path class="cls-1" d="M187.25,202.91a6.19,6.19,0,0,0-.09-2.14l2.35-1.38a9,9,0,0,0-.82-2l-2.67.94a6.19,6.19,0,0,0-1.58-1.45l.76-2.9a8.07,8.07,0,0,0-2-.74l-1.3,2.7a6.19,6.19,0,0,0-2.14.09l-1.43-2.44a9,9,0,0,0-1.93,1l.9,2.57a6.19,6.19,0,0,0-1.45,1.58l-2.48-.65a9.33,9.33,0,0,0-.76,2.08l2.31,1.11a6.19,6.19,0,0,0,.09,2.14l-2.35,1.38a9,9,0,0,0,.82,2l2.67-.94a6.19,6.19,0,0,0,1.58,1.45l-.76,2.9a8.07,8.07,0,0,0,2,.74l1.3-2.7a6.19,6.19,0,0,0,2.14-.09l1.43,2.44a9,9,0,0,0,1.93-1l-.9-2.57a6.19,6.19,0,0,0,1.45-1.58l2.48.65a9.33,9.33,0,0,0,.76-2.08Zm-3.42-.22a2.8,2.8,0,1,1-1.66-3.59A2.8,2.8,0,0,1,183.84,202.7Z" transform="translate(-3.23 -4.34)"/><path class="cls-1" d="M158.07,201.28l2.31-1.11a9.33,9.33,0,0,0-.76-2.08l-2.48.65a6.19,6.19,0,0,0-1.45-1.58l.9-2.57a9,9,0,0,0-1.93-1L153.22,196a6.19,6.19,0,0,0-2.14-.09l-1.3-2.7a8.07,8.07,0,0,0-2,.74l.76,2.9a6.19,6.19,0,0,0-1.58,1.45l-2.67-.94a9,9,0,0,0-.82,2l2.35,1.38a6.19,6.19,0,0,0-.09,2.14L143.41,204a9.33,9.33,0,0,0,.76,2.08l2.48-.65a6.19,6.19,0,0,0,1.45,1.58l-.9,2.57a9,9,0,0,0,1.93,1l1.43-2.44a6.19,6.19,0,0,0,2.14.09L154,211a8.07,8.07,0,0,0,2-.74l-.76-2.9a6.19,6.19,0,0,0,1.58-1.45l2.67.94a9,9,0,0,0,.82-2L158,203.42A6.19,6.19,0,0,0,158.07,201.28Zm-4.85,2.85a2.8,2.8,0,1,1,1.31-2.82A2.8,2.8,0,0,1,153.22,204.12Z" transform="translate(-3.23 -4.34)"/></g><g id="Camera"><rect class="cls-1" x="214.25" y="165.41" width="20.77" height="10.41" rx="1.95" ry="1.95"/><rect class="cls-1" x="233.51" y="167.5" width="4.1" height="6.22" rx="0.74" ry="0.74"/><path class="cls-6" d="M240.27,176.88q0-1.93,0-3.87c0-.33.17-.59.37-.62,1.4-.19,2.71-1.38,4.06-2.13.19-.11.45.31.55.94a26.14,26.14,0,0,1,0,7.49c-.09.63-.36,1.05-.55.94-1.35-.75-2.66-1.94-4.06-2.13C240.44,177.48,240.27,177.21,240.27,176.88Z" transform="translate(-3.23 -4.34)"/></g><g id="Robot"><path id="path109" class="cls-7" d="M129.61,246.32a1.43,1.43,0,0,0,.52-.09,2.5,2.5,0,0,0,1-1.16l.55,0a1.73,1.73,0,0,0,1-.24,2.4,2.4,0,0,0,.8-1.34A2.42,2.42,0,0,0,135,243a2.4,2.4,0,0,0,.52-1.47,2.37,2.37,0,0,0,1.34-.78,2.4,2.4,0,0,0,.22-1.53,2.44,2.44,0,0,0,1.18-1,2.39,2.39,0,0,0-.09-1.55,1.78,1.78,0,0,0,.55-2.73,2.42,2.42,0,0,0,.68-1.41,2.38,2.38,0,0,0-.67-1.4,2.35,2.35,0,0,0,.39-1.5,2.39,2.39,0,0,0-.93-1.25,2.35,2.35,0,0,0,.1-1.55,2.43,2.43,0,0,0-1.17-1,1.78,1.78,0,0,0-1.54-2.33,2.42,2.42,0,0,0-.5-1.47,2.4,2.4,0,0,0-1.47-.52,2.37,2.37,0,0,0-.78-1.34,1.7,1.7,0,0,0-1-.24l-.54,0a2.43,2.43,0,0,0-1-1.18,1.29,1.29,0,0,0-.52-.1,4,4,0,0,0-1,.19,2.43,2.43,0,0,0-1.24-.95l-.24,0a2.93,2.93,0,0,0-1.26.41,2.43,2.43,0,0,0-1.4-.68,2.38,2.38,0,0,0-1.4.67,2.87,2.87,0,0,0-1.25-.41l-.25,0a2.39,2.39,0,0,0-1.25.93,3.82,3.82,0,0,0-1-.2,1.43,1.43,0,0,0-.52.09,2.45,2.45,0,0,0-1,1.17l-.55,0a1.73,1.73,0,0,0-1,.24,2.41,2.41,0,0,0-.8,1.34,2.42,2.42,0,0,0-1.47.5,2.4,2.4,0,0,0-.52,1.47,1.78,1.78,0,0,0-1.56,2.32,2.38,2.38,0,0,0-1.17,1,2.41,2.41,0,0,0,.09,1.56,2.4,2.4,0,0,0-.95,1.24,2.36,2.36,0,0,0,.39,1.5,2.43,2.43,0,0,0-.68,1.4,2.38,2.38,0,0,0,.67,1.4,1.8,1.8,0,0,0,.55,2.76,1.78,1.78,0,0,0,1.07,2.59,2.35,2.35,0,0,0,.21,1.53,2.4,2.4,0,0,0,1.34.8,1.78,1.78,0,0,0,2,2,2.37,2.37,0,0,0,.78,1.34,1.71,1.71,0,0,0,1,.24l.54,0a2.38,2.38,0,0,0,1,1.17,1.29,1.29,0,0,0,.52.1,3.86,3.86,0,0,0,1-.19,2.43,2.43,0,0,0,1.24.95l.24,0a2.93,2.93,0,0,0,1.26-.41,2.43,2.43,0,0,0,1.4.68,2.4,2.4,0,0,0,1.4-.67,2.87,2.87,0,0,0,1.25.41l.25,0a2.4,2.4,0,0,0,1.25-.93,3.32,3.32,0,0,0,1,.21m-2.27-.81-.3,0a3.18,3.18,0,0,0-1.25.72,2.22,2.22,0,0,0-2.73,0,3.09,3.09,0,0,0-1.23-.73,1.29,1.29,0,0,0-.3,0,4.31,4.31,0,0,0-1.12.21,3.1,3.1,0,0,0-1.07-1,2,2,0,0,0-.78-.13,6.55,6.55,0,0,0-.66,0,3.16,3.16,0,0,0-.86-1.15,3.11,3.11,0,0,0-1.38-.37,3.16,3.16,0,0,0-.63-1.29,3.12,3.12,0,0,0-1.29-.63,2.22,2.22,0,0,0-1.5-2.27,3.25,3.25,0,0,0-.08-1.44,3.09,3.09,0,0,0-.95-1.08,2.21,2.21,0,0,0-.52-2.67,2.22,2.22,0,0,0,0-2.73,3.09,3.09,0,0,0,.73-1.23,3.16,3.16,0,0,0-.18-1.43,3.1,3.1,0,0,0,1-1.07,3.23,3.23,0,0,0,.1-1.44,2.21,2.21,0,0,0,1.53-2.24,3.19,3.19,0,0,0,1.3-.63,3.12,3.12,0,0,0,.63-1.29,3.11,3.11,0,0,0,1.39-.36,3.16,3.16,0,0,0,.87-1.13,6.13,6.13,0,0,0,.65,0,2,2,0,0,0,.79-.13,3.09,3.09,0,0,0,1.08-.95,4.09,4.09,0,0,0,1.12.22,1.29,1.29,0,0,0,.3,0,3.18,3.18,0,0,0,1.25-.72,2.22,2.22,0,0,0,2.73,0,3.09,3.09,0,0,0,1.23.73,1.87,1.87,0,0,0,.3,0,4.31,4.31,0,0,0,1.12-.21,3.1,3.1,0,0,0,1.07,1,2,2,0,0,0,.78.13,6.55,6.55,0,0,0,.66,0,3,3,0,0,0,.87,1.14,3.08,3.08,0,0,0,1.38.37A3.19,3.19,0,0,0,134,223a3.12,3.12,0,0,0,1.29.63,3.11,3.11,0,0,0,.36,1.39,3.16,3.16,0,0,0,1.13.87,3.25,3.25,0,0,0,.08,1.44,3.09,3.09,0,0,0,.95,1.08,2.21,2.21,0,0,0,.52,2.67,2.23,2.23,0,0,0,0,2.74,3.09,3.09,0,0,0-.73,1.23,3.16,3.16,0,0,0,.18,1.43,3.1,3.1,0,0,0-1,1.07,3.23,3.23,0,0,0-.1,1.44,3.07,3.07,0,0,0-1.14.86,3.12,3.12,0,0,0-.37,1.39,3.19,3.19,0,0,0-1.3.63,3.12,3.12,0,0,0-.63,1.29,3.11,3.11,0,0,0-1.39.36,3.19,3.19,0,0,0-.87,1.14,6.28,6.28,0,0,0-.65,0,2,2,0,0,0-.79.13,3.09,3.09,0,0,0-1.08.95,3.94,3.94,0,0,0-1.14-.23m2.67.39a1,1,0,0,1-.39.07,3.08,3.08,0,0,1-.78-.14,2.47,2.47,0,0,1,.84-.73,1.78,1.78,0,0,1,.66-.1l.46,0a1.87,1.87,0,0,1-.79.87m2.52-1.34a1.4,1.4,0,0,1-.79.17l-.37,0a2.5,2.5,0,0,1,.68-.88,2.54,2.54,0,0,1,1.09-.29,1.92,1.92,0,0,1-.61,1m2.21-1.8a1.86,1.86,0,0,1-1.11.39,1.77,1.77,0,0,1,1.51-1.5,1.91,1.91,0,0,1-.4,1.12m1.81-2.19a1.82,1.82,0,0,1-1,.59,2.5,2.5,0,0,1,.3-1.08,2.58,2.58,0,0,1,.88-.68,1.88,1.88,0,0,1-.17,1.16m1.37-2.51a1.88,1.88,0,0,1-.89.79,1.77,1.77,0,0,1,.83-2,2,2,0,0,1,.06,1.18m.84-2.73a1.88,1.88,0,0,1-.71.94,2.7,2.7,0,0,1-.14-1.12,2.46,2.46,0,0,1,.55-1,1.87,1.87,0,0,1,.29,1.13m-.22-1.76a2.46,2.46,0,0,1-.35-1.07,2.42,2.42,0,0,1,.37-1.06,1.93,1.93,0,0,1,.49,1.07,2,2,0,0,1-.52,1.06m.24-3.91a1.87,1.87,0,0,1-.29,1.13,2.46,2.46,0,0,1-.55-1,2.59,2.59,0,0,1,.14-1.12,1.91,1.91,0,0,1,.7,1m-.8-2.74a1.91,1.91,0,0,1-.07,1.17,2.5,2.5,0,0,1-.74-.84,2.46,2.46,0,0,1-.08-1.12,1.94,1.94,0,0,1,.88.8m-1.34-2.51a1.88,1.88,0,0,1,.16,1.16,2.5,2.5,0,0,1-.88-.68,2.54,2.54,0,0,1-.29-1.09,1.81,1.81,0,0,1,1,.61m-1.41-1.11a2.49,2.49,0,0,1-1-.5,2.57,2.57,0,0,1-.5-1,1.37,1.37,0,0,1,1.5,1.51m-2.58-2.92a1.82,1.82,0,0,1,.59,1,2.4,2.4,0,0,1-1.08-.3,2.54,2.54,0,0,1-.68-.89l.36,0a1.51,1.51,0,0,1,.8.2M130.12,219a1.93,1.93,0,0,1,.79.88l-.48,0a1.68,1.68,0,0,1-.65-.11,2.5,2.5,0,0,1-.84-.74,3.14,3.14,0,0,1,.78-.14,1.21,1.21,0,0,1,.39.08m-2.73-.84a1.85,1.85,0,0,1,.94.71,2.61,2.61,0,0,1-1.12.14,2.39,2.39,0,0,1-1-.56,1.9,1.9,0,0,1,1.13-.29m-1.76.22a2.45,2.45,0,0,1-1.08.35,2.5,2.5,0,0,1-1.06-.36,1.39,1.39,0,0,1,2.14,0m-3.91-.24a1.94,1.94,0,0,1,1.14.29,2.46,2.46,0,0,1-1,.55,2.64,2.64,0,0,1-1.12-.14,1.86,1.86,0,0,1,.95-.7M119,219a1,1,0,0,1,.39-.07,3.08,3.08,0,0,1,.78.14,2.47,2.47,0,0,1-.84.73,1.78,1.78,0,0,1-.66.1l-.46,0A1.83,1.83,0,0,1,119,219m-2.52,1.34a1.34,1.34,0,0,1,.79-.17l.37,0a2.5,2.5,0,0,1-.68.88,2.54,2.54,0,0,1-1.09.29,1.83,1.83,0,0,1,.61-1m-2.22,1.8a1.86,1.86,0,0,1,1.11-.39,1.75,1.75,0,0,1-1.5,1.5,1.9,1.9,0,0,1,.39-1.11m-1.81,2.19a1.82,1.82,0,0,1,1-.59,2.4,2.4,0,0,1-.3,1.08,2.54,2.54,0,0,1-.89.68,1.94,1.94,0,0,1,.18-1.16m-1.36,2.51a1.93,1.93,0,0,1,.88-.79,2.56,2.56,0,0,1-.08,1.12,2.5,2.5,0,0,1-.74.84,1.85,1.85,0,0,1-.06-1.17m-.84,2.73a1.85,1.85,0,0,1,.71-.94,2.58,2.58,0,0,1,.14,1.12,2.47,2.47,0,0,1-.56,1,1.9,1.9,0,0,1-.29-1.14m.22,1.76a2.45,2.45,0,0,1,.35,1.08,2.5,2.5,0,0,1-.36,1.06,1.39,1.39,0,0,1,0-2.14m-.24,3.91a1.9,1.9,0,0,1,.29-1.14,2.46,2.46,0,0,1,.55,1,2.59,2.59,0,0,1-.14,1.12,1.86,1.86,0,0,1-.7-.95M111,238a1.91,1.91,0,0,1,.07-1.17,1.77,1.77,0,0,1,.8,2,2,2,0,0,1-.87-.8m1.34,2.51a1.88,1.88,0,0,1-.16-1.16,2.5,2.5,0,0,1,.88.68,2.54,2.54,0,0,1,.29,1.09,1.83,1.83,0,0,1-1-.61m1.41,1.11a2.7,2.7,0,0,1,1,.5,2.58,2.58,0,0,1,.49,1,1.9,1.9,0,0,1-1.11-.39,1.86,1.86,0,0,1-.39-1.11m2.59,2.92a1.87,1.87,0,0,1-.6-1,2.4,2.4,0,0,1,1.08.3,2.45,2.45,0,0,1,.68.89l-.36,0a1.46,1.46,0,0,1-.8-.2m2.51,1.36a1.93,1.93,0,0,1-.79-.88l.47,0a1.68,1.68,0,0,1,.65.11,2.5,2.5,0,0,1,.84.74,2.76,2.76,0,0,1-.78.13,1,1,0,0,1-.38-.07m2.73.84a1.85,1.85,0,0,1-.94-.71,2.75,2.75,0,0,1,1.12-.14,2.39,2.39,0,0,1,1,.56,1.89,1.89,0,0,1-1.13.29m1.77-.22a2.53,2.53,0,0,1,1.07-.35,2.5,2.5,0,0,1,1.06.36,1.91,1.91,0,0,1-1.06.49,1.84,1.84,0,0,1-1.07-.51m3.9.24a1.94,1.94,0,0,1-1.14-.29,2.46,2.46,0,0,1,1-.55,2.64,2.64,0,0,1,1.12.14,1.86,1.86,0,0,1-.95.7" transform="translate(-3.23 -4.34)"/><path class="cls-8" d="M147.41,232.44c0-.25,0-.49,0-.74l1.58-.45a24.39,24.39,0,0,0-1.9-8.36l-1.62.27q-.3-.68-.64-1.33l1.22-1.09a24.6,24.6,0,0,0-5.35-6.7l-1.33.94c-.37-.32-.75-.63-1.15-.92l.62-1.5a24.4,24.4,0,0,0-7.72-3.72l-.79,1.43c-.47-.12-1-.23-1.44-.32l-.09-1.63a24.28,24.28,0,0,0-8.57,0l-.09,1.63c-.49.09-1,.2-1.44.32l-.79-1.43a24.4,24.4,0,0,0-7.72,3.72l.62,1.5c-.39.29-.77.61-1.15.92L108.3,214a24.6,24.6,0,0,0-5.35,6.7l1.22,1.09q-.34.65-.64,1.33l-1.62-.27a24.39,24.39,0,0,0-1.9,8.36l1.58.45c0,.24,0,.49,0,.74s0,.49,0,.74l-1.58.45a24.39,24.39,0,0,0,1.9,8.36l1.62-.27q.3.68.64,1.33L103,244.13a24.6,24.6,0,0,0,5.35,6.7l1.33-.94c.37.32.75.63,1.15.92l-.62,1.5a24.4,24.4,0,0,0,7.72,3.72l.79-1.43c.47.12,1,.23,1.44.32l.09,1.63a24.28,24.28,0,0,0,8.57,0l.09-1.63c.49-.09,1-.2,1.44-.32l.79,1.43a24.4,24.4,0,0,0,7.72-3.72l-.62-1.5c.39-.29.77-.61,1.15-.92l1.33.94a24.6,24.6,0,0,0,5.35-6.7L144.81,243q.34-.65.64-1.33l1.62.27a24.39,24.39,0,0,0,1.9-8.36l-1.58-.45C147.4,232.93,147.41,232.68,147.41,232.44Z" transform="translate(-3.23 -4.34)"/><circle class="cls-1" cx="121.26" cy="228.09" r="2.96"/><path id="path109-2" data-name="path109" class="cls-7" d="M213.61,246.32a1.43,1.43,0,0,0,.52-.09,2.5,2.5,0,0,0,1-1.16l.55,0a1.73,1.73,0,0,0,1-.24,2.4,2.4,0,0,0,.8-1.34A2.42,2.42,0,0,0,219,243a2.4,2.4,0,0,0,.52-1.47,2.37,2.37,0,0,0,1.34-.78,2.4,2.4,0,0,0,.22-1.53,2.44,2.44,0,0,0,1.18-1,2.39,2.39,0,0,0-.09-1.55,1.78,1.78,0,0,0,.55-2.73,2.42,2.42,0,0,0,.68-1.41,2.38,2.38,0,0,0-.67-1.4,2.35,2.35,0,0,0,.39-1.5,2.39,2.39,0,0,0-.93-1.25,2.35,2.35,0,0,0,.1-1.55,2.43,2.43,0,0,0-1.17-1,1.78,1.78,0,0,0-1.54-2.33,2.42,2.42,0,0,0-.5-1.47,2.4,2.4,0,0,0-1.47-.52,2.37,2.37,0,0,0-.78-1.34,1.7,1.7,0,0,0-1-.24l-.54,0a2.43,2.43,0,0,0-1-1.18,1.29,1.29,0,0,0-.52-.1,4,4,0,0,0-1,.19,2.43,2.43,0,0,0-1.24-.95l-.24,0a2.93,2.93,0,0,0-1.26.41,2.43,2.43,0,0,0-1.4-.68,2.38,2.38,0,0,0-1.4.67,2.87,2.87,0,0,0-1.25-.41l-.25,0a2.39,2.39,0,0,0-1.25.93,3.82,3.82,0,0,0-1-.2,1.43,1.43,0,0,0-.52.09,2.45,2.45,0,0,0-1,1.17l-.55,0a1.73,1.73,0,0,0-1,.24,2.41,2.41,0,0,0-.8,1.34,2.42,2.42,0,0,0-1.47.5,2.4,2.4,0,0,0-.52,1.47,1.78,1.78,0,0,0-1.56,2.32,2.38,2.38,0,0,0-1.17,1,2.41,2.41,0,0,0,.09,1.56,2.4,2.4,0,0,0-.95,1.24,2.36,2.36,0,0,0,.39,1.5,2.43,2.43,0,0,0-.68,1.4,2.38,2.38,0,0,0,.67,1.4,1.8,1.8,0,0,0,.55,2.76,1.78,1.78,0,0,0,1.07,2.59,2.35,2.35,0,0,0,.21,1.53,2.25,2.25,0,0,1,1.85,2.27,2.45,2.45,0,0,0,1.47.52,2.37,2.37,0,0,0,.78,1.34,1.71,1.71,0,0,0,1,.24l.54,0a2.38,2.38,0,0,0,1,1.17,1.29,1.29,0,0,0,.52.1,3.86,3.86,0,0,0,1-.19,2.43,2.43,0,0,0,1.24.95l.24,0a2.93,2.93,0,0,0,1.26-.41,2.43,2.43,0,0,0,1.4.68,2.4,2.4,0,0,0,1.4-.67,2.87,2.87,0,0,0,1.25.41l.25,0a2.4,2.4,0,0,0,1.25-.93,3.32,3.32,0,0,0,1,.21m-2.27-.81-.3,0a3.18,3.18,0,0,0-1.25.72,2.22,2.22,0,0,0-2.73,0,3.09,3.09,0,0,0-1.23-.73,1.29,1.29,0,0,0-.3,0,4.31,4.31,0,0,0-1.12.21,3.1,3.1,0,0,0-1.07-1,2,2,0,0,0-.78-.13,6.55,6.55,0,0,0-.66,0,3.16,3.16,0,0,0-.86-1.15,3.11,3.11,0,0,0-1.38-.37,3.16,3.16,0,0,0-.63-1.29,3.12,3.12,0,0,0-1.29-.63,2.22,2.22,0,0,0-1.5-2.27,3.25,3.25,0,0,0-.08-1.44,3.09,3.09,0,0,0-.95-1.08,2.21,2.21,0,0,0-.52-2.67,2.22,2.22,0,0,0,0-2.73,3.09,3.09,0,0,0,.73-1.23,3.16,3.16,0,0,0-.18-1.43,3.1,3.1,0,0,0,1-1.07,3.23,3.23,0,0,0,.1-1.44,2.21,2.21,0,0,0,1.53-2.24,3.19,3.19,0,0,0,1.3-.63,3.12,3.12,0,0,0,.63-1.29,3.11,3.11,0,0,0,1.39-.36,3.16,3.16,0,0,0,.87-1.13,6.13,6.13,0,0,0,.65,0,2,2,0,0,0,.79-.13,3.09,3.09,0,0,0,1.08-.95,4.09,4.09,0,0,0,1.12.22,1.29,1.29,0,0,0,.3,0,3.18,3.18,0,0,0,1.25-.72,2.22,2.22,0,0,0,2.73,0,3.09,3.09,0,0,0,1.23.73,1.87,1.87,0,0,0,.3,0,4.31,4.31,0,0,0,1.12-.21,3.1,3.1,0,0,0,1.07,1,2,2,0,0,0,.78.13,6.55,6.55,0,0,0,.66,0,3,3,0,0,0,.87,1.14,3.08,3.08,0,0,0,1.38.37A3.19,3.19,0,0,0,218,223a3.12,3.12,0,0,0,1.29.63,3.11,3.11,0,0,0,.36,1.39,3.16,3.16,0,0,0,1.13.87,3.25,3.25,0,0,0,.08,1.44,3.09,3.09,0,0,0,.95,1.08,2.21,2.21,0,0,0,.52,2.67,2.23,2.23,0,0,0,0,2.74,3.09,3.09,0,0,0-.73,1.23,3.16,3.16,0,0,0,.18,1.43,3.1,3.1,0,0,0-1,1.07,3.23,3.23,0,0,0-.1,1.44,3.07,3.07,0,0,0-1.14.86,3.12,3.12,0,0,0-.37,1.39,3.19,3.19,0,0,0-1.3.63,3.12,3.12,0,0,0-.63,1.29,3.11,3.11,0,0,0-1.39.36,3.19,3.19,0,0,0-.87,1.14,6.28,6.28,0,0,0-.65,0,2,2,0,0,0-.79.13,3.09,3.09,0,0,0-1.08.95,3.94,3.94,0,0,0-1.14-.23m2.67.39a1,1,0,0,1-.39.07,3.08,3.08,0,0,1-.78-.14,2.47,2.47,0,0,1,.84-.73,1.78,1.78,0,0,1,.66-.1l.46,0a1.87,1.87,0,0,1-.79.87m2.52-1.34a1.4,1.4,0,0,1-.79.17l-.37,0a2.5,2.5,0,0,1,.68-.88,2.54,2.54,0,0,1,1.09-.29,1.92,1.92,0,0,1-.61,1m2.21-1.8a1.86,1.86,0,0,1-1.11.39,1.77,1.77,0,0,1,1.51-1.5,1.91,1.91,0,0,1-.4,1.12m1.81-2.19a1.82,1.82,0,0,1-1,.59,2.5,2.5,0,0,1,.3-1.08,2.58,2.58,0,0,1,.88-.68,1.88,1.88,0,0,1-.17,1.16m1.37-2.51a1.88,1.88,0,0,1-.89.79,1.77,1.77,0,0,1,.83-2,2,2,0,0,1,.06,1.18m.84-2.73a1.88,1.88,0,0,1-.71.94,2.7,2.7,0,0,1-.14-1.12,2.46,2.46,0,0,1,.55-1,1.87,1.87,0,0,1,.29,1.13m-.22-1.76a2.46,2.46,0,0,1-.35-1.07,2.42,2.42,0,0,1,.37-1.06,1.93,1.93,0,0,1,.49,1.07,2,2,0,0,1-.52,1.06m.24-3.91a1.87,1.87,0,0,1-.29,1.13,2.46,2.46,0,0,1-.55-1,2.59,2.59,0,0,1,.14-1.12,1.91,1.91,0,0,1,.7,1m-.8-2.74a1.91,1.91,0,0,1-.07,1.17,2.5,2.5,0,0,1-.74-.84,2.46,2.46,0,0,1-.08-1.12,1.94,1.94,0,0,1,.88.8m-1.34-2.51a1.88,1.88,0,0,1,.16,1.16,2.5,2.5,0,0,1-.88-.68,2.54,2.54,0,0,1-.29-1.09,1.81,1.81,0,0,1,1,.61m-1.41-1.11a2.49,2.49,0,0,1-1-.5,2.57,2.57,0,0,1-.5-1,1.37,1.37,0,0,1,1.5,1.51m-2.58-2.92a1.82,1.82,0,0,1,.59,1,2.4,2.4,0,0,1-1.08-.3,2.54,2.54,0,0,1-.68-.89l.36,0a1.51,1.51,0,0,1,.8.2M214.12,219a1.93,1.93,0,0,1,.79.88l-.48,0a1.68,1.68,0,0,1-.65-.11,2.5,2.5,0,0,1-.84-.74,3.14,3.14,0,0,1,.78-.14,1.21,1.21,0,0,1,.39.08m-2.73-.84a1.85,1.85,0,0,1,.94.71,2.61,2.61,0,0,1-1.12.14,2.39,2.39,0,0,1-1-.56,1.9,1.9,0,0,1,1.13-.29m-1.76.22a2.45,2.45,0,0,1-1.08.35,2.5,2.5,0,0,1-1.06-.36,1.39,1.39,0,0,1,2.14,0m-3.91-.24a1.94,1.94,0,0,1,1.14.29,2.46,2.46,0,0,1-1,.55,2.64,2.64,0,0,1-1.12-.14,1.86,1.86,0,0,1,.95-.7M203,219a1,1,0,0,1,.39-.07,3.08,3.08,0,0,1,.78.14,2.47,2.47,0,0,1-.84.73,1.78,1.78,0,0,1-.66.1l-.46,0A1.83,1.83,0,0,1,203,219m-2.52,1.34a1.34,1.34,0,0,1,.79-.17l.37,0a2.5,2.5,0,0,1-.68.88,2.54,2.54,0,0,1-1.09.29,1.83,1.83,0,0,1,.61-1m-2.22,1.8a1.86,1.86,0,0,1,1.11-.39,1.75,1.75,0,0,1-1.5,1.5,1.9,1.9,0,0,1,.39-1.11m-1.81,2.19a1.82,1.82,0,0,1,1-.59,2.4,2.4,0,0,1-.3,1.08,2.54,2.54,0,0,1-.89.68,1.94,1.94,0,0,1,.18-1.16m-1.36,2.51a1.93,1.93,0,0,1,.88-.79,2.56,2.56,0,0,1-.08,1.12,2.5,2.5,0,0,1-.74.84,1.85,1.85,0,0,1-.06-1.17m-.84,2.73a1.85,1.85,0,0,1,.71-.94,2.58,2.58,0,0,1,.14,1.12,2.47,2.47,0,0,1-.56,1,1.9,1.9,0,0,1-.29-1.14m.22,1.76a2.45,2.45,0,0,1,.35,1.08,2.5,2.5,0,0,1-.36,1.06,1.39,1.39,0,0,1,0-2.14m-.24,3.91a1.9,1.9,0,0,1,.29-1.14,2.46,2.46,0,0,1,.55,1,2.59,2.59,0,0,1-.14,1.12,1.86,1.86,0,0,1-.7-.95M195,238a1.91,1.91,0,0,1,.07-1.17,1.77,1.77,0,0,1,.8,2,2,2,0,0,1-.87-.8m1.34,2.51a1.88,1.88,0,0,1-.16-1.16,2.5,2.5,0,0,1,.88.68,2.54,2.54,0,0,1,.29,1.09,1.83,1.83,0,0,1-1-.61m1.41,1.11a2.7,2.7,0,0,1,1,.5,2.58,2.58,0,0,1,.49,1,1.9,1.9,0,0,1-1.11-.39,1.86,1.86,0,0,1-.39-1.11m2.59,2.92a1.87,1.87,0,0,1-.6-1,2.4,2.4,0,0,1,1.08.3,2.45,2.45,0,0,1,.68.89l-.36,0a1.46,1.46,0,0,1-.8-.2m2.51,1.36a1.93,1.93,0,0,1-.79-.88l.47,0a1.68,1.68,0,0,1,.65.11,2.5,2.5,0,0,1,.84.74,2.76,2.76,0,0,1-.78.13,1,1,0,0,1-.38-.07m2.73.84a1.85,1.85,0,0,1-.94-.71,2.75,2.75,0,0,1,1.12-.14,2.39,2.39,0,0,1,1,.56,1.89,1.89,0,0,1-1.13.29m1.77-.22a2.53,2.53,0,0,1,1.07-.35,2.5,2.5,0,0,1,1.06.36,1.91,1.91,0,0,1-1.06.49,1.84,1.84,0,0,1-1.07-.51m3.9.24a1.94,1.94,0,0,1-1.14-.29,2.46,2.46,0,0,1,1-.55,2.64,2.64,0,0,1,1.12.14,1.86,1.86,0,0,1-.95.7" transform="translate(-3.23 -4.34)"/><path class="cls-9" d="M231.41,232.44c0-.25,0-.49,0-.74l1.58-.45a24.39,24.39,0,0,0-1.9-8.36l-1.62.27q-.3-.68-.64-1.33l1.22-1.09a24.61,24.61,0,0,0-5.35-6.7l-1.33.94c-.37-.32-.75-.63-1.15-.92l.62-1.5a24.4,24.4,0,0,0-7.72-3.72l-.79,1.43c-.47-.12-1-.23-1.44-.32l-.09-1.63a24.28,24.28,0,0,0-8.57,0l-.09,1.63c-.49.09-1,.2-1.44.32l-.79-1.43a24.4,24.4,0,0,0-7.72,3.72l.62,1.5c-.39.29-.77.61-1.15.92L192.3,214a24.61,24.61,0,0,0-5.35,6.7l1.22,1.09q-.34.65-.64,1.33l-1.62-.27a24.39,24.39,0,0,0-1.9,8.36l1.58.45c0,.24,0,.49,0,.74s0,.49,0,.74l-1.58.45a24.39,24.39,0,0,0,1.9,8.36l1.62-.27q.3.68.64,1.33l-1.22,1.09a24.61,24.61,0,0,0,5.35,6.7l1.33-.94c.37.32.75.63,1.15.92l-.62,1.5a24.4,24.4,0,0,0,7.72,3.72l.79-1.43c.47.12,1,.23,1.44.32l.09,1.63a24.28,24.28,0,0,0,8.57,0l.09-1.63c.49-.09,1-.2,1.44-.32l.79,1.43a24.4,24.4,0,0,0,7.72-3.72l-.62-1.5c.39-.29.77-.61,1.15-.92l1.33.94a24.61,24.61,0,0,0,5.35-6.7L228.81,243q.34-.65.64-1.33l1.62.27a24.39,24.39,0,0,0,1.9-8.36l-1.58-.45C231.4,232.93,231.41,232.68,231.41,232.44Z" transform="translate(-3.23 -4.34)"/><circle class="cls-1" cx="205.26" cy="228.09" r="2.96"/></g></g><g id="System2"><g id="Chassis"><rect id="rect83" class="cls-1" x="81.39" y="219.11" width="3.19" height="26.66" transform="translate(-153.06 310) rotate(-89.74)"/><path class="cls-1" d="M96.31,232.5s0-.09,0-.13a28.12,28.12,0,0,1,56.24,0s0,.09,0,.13h2s0-.09,0-.13a30.12,30.12,0,0,0-60.24,0s0,.09,0,.13Z" transform="translate(-3.23 -4.34)"/><path class="cls-1" d="M180.31,232.29s0-.09,0-.13a28.12,28.12,0,1,1,56.24,0s0,.09,0,.13h2s0-.09,0-.13a30.12,30.12,0,1,0-60.24,0s0,.09,0,.13Z" transform="translate(-3.23 -4.34)"/><rect id="rect83-2" data-name="rect83" class="cls-1" x="248.14" y="219.24" width="3.19" height="26.39" transform="translate(12.93 476.76) rotate(-89.74)"/><polygon id="rect73" class="cls-1" points="69.61 228.04 66.42 228 66.44 219.43 69.62 219.46 69.61 228.04"/><polygon id="rect97" class="cls-1" points="256.52 220.21 259.71 220.24 259.69 229.29 256.51 229.26 256.52 220.21"/><path class="cls-1" d="M96.31,232.5s0-.09,0-.13a28.12,28.12,0,0,1,56.24,0s0,.09,0,.13h2s0-.09,0-.13a30.12,30.12,0,0,0-60.24,0s0,.09,0,.13Z" transform="translate(-3.23 -4.34)"/><rect id="rect83-3" data-name="rect83" class="cls-1" x="164.84" y="218.24" width="3.19" height="27.76" transform="translate(-69.71 393.1) rotate(-89.72)"/></g><g id="ShanghaiTech"><polygon id="polygon51" class="cls-1" points="107.3 197.36 110.48 197.36 110.55 176.52 107.37 176.45 107.3 197.36"/><rect id="rect53" class="cls-1" x="107.32" y="184.97" width="23.27" height="3.19" transform="translate(-71.3 300.46) rotate(-89.78)"/><rect id="rect55" class="cls-1" x="120.04" y="178.03" width="25.07" height="3.19" transform="translate(-50.79 307.16) rotate(-89.78)"/><rect id="rect57" class="cls-1" x="113.65" y="181.34" width="24.23" height="3.19" transform="translate(-60.95 303.53) rotate(-89.74)"/><rect id="rect59" class="cls-1" x="126.38" y="175.75" width="25.9" height="3.19" transform="translate(-41.78 311.65) rotate(-89.78)"/><rect id="rect61" class="cls-1" x="133.07" y="173.77" width="26.24" height="3.19" transform="translate(-32.96 316.53) rotate(-89.78)"/><rect id="rect63" class="cls-1" x="95.96" y="195.03" width="18.76" height="3.19" transform="translate(-94.92 296.87) rotate(-89.78)"/><rect id="rect65" class="cls-1" x="91.29" y="201.96" width="14.47" height="3.19" transform="translate(-108.7 296.82) rotate(-89.74)"/><rect id="rect67" class="cls-1" x="86.49" y="209.43" width="10.46" height="3.19" transform="translate(-122.92 297.49) rotate(-89.76)"/><rect id="rect69" class="cls-1" x="81.25" y="215.41" width="7.27" height="3.19" transform="matrix(0, -1, 1, 0, -135.69, 296.67)"/><rect id="rect71" class="cls-1" x="75.4" y="220.01" width="5.33" height="3.19" transform="translate(-147.11 294.33) rotate(-89.74)"/><rect id="rect73-2" data-name="rect73" class="cls-1" x="69.31" y="224.13" width="3.88" height="3.19" transform="translate(-158.02 291.61) rotate(-89.74)"/><polygon id="polygon75" class="cls-1" points="219.12 176.94 216.01 176.94 215.87 197.78 219.05 197.78 219.12 176.94"/><rect id="rect77" class="cls-1" x="202.34" y="185.42" width="23.27" height="3.19" transform="translate(22.91 395.92) rotate(-89.78)"/><polygon id="polygon79" class="cls-1" points="195.58 188.15 198.77 188.15 198.84 163.09 195.65 163.09 195.58 188.15"/><rect id="rect81" class="cls-1" x="195.07" y="181.76" width="24.23" height="3.19" transform="translate(19.76 385.45) rotate(-89.77)"/><rect id="rect83-4" data-name="rect83" class="cls-1" x="180.74" y="175.95" width="25.9" height="3.19" transform="translate(12.05 366.09) rotate(-89.74)"/><rect id="rect85" class="cls-1" x="173.78" y="173.97" width="26.24" height="3.19" transform="translate(7.27 357.33) rotate(-89.74)"/><rect id="rect61-2" data-name="rect61" class="cls-1" x="140.17" y="171.53" width="26.24" height="3.19" transform="translate(-23.65 321.41) rotate(-89.78)"/><rect id="rect85-2" data-name="rect85" class="cls-1" x="166.78" y="171.53" width="26.24" height="3.19" transform="translate(2.74 347.9) rotate(-89.74)"/><polygon id="rect87" class="cls-1" points="222.77 177.08 225.95 177.09 225.87 202.22 222.69 202.2 222.77 177.08"/><rect id="rect89" class="cls-1" x="227.03" y="202.55" width="14.47" height="3.19" transform="translate(25.99 433.28) rotate(-89.78)"/><rect id="rect91" class="cls-1" x="235.77" y="210.06" width="10.46" height="3.19" transform="translate(25.14 447.44) rotate(-89.77)"/><rect id="rect93" class="cls-1" x="244.11" y="216.09" width="7.27" height="3.19" transform="translate(25.89 460.25) rotate(-89.78)"/><rect id="rect95" class="cls-1" x="251.88" y="220.8" width="5.33" height="3.19" transform="translate(27.95 471.74) rotate(-89.78)"/><rect id="rect97-2" data-name="rect97" class="cls-1" x="259.4" y="224.9" width="3.88" height="3.19" transform="translate(30.56 482.57) rotate(-89.77)"/></g><path id="AntennaTower" class="cls-1" d="M108.11,159.58l-1.82-2.85,0,0s0,0,0,0l-1.4-6.47s0-.05,0-.08,0,0,0-.06v0s0,0,0,0l-3.48-5.71-1.48-6.36a.3.3,0,0,0,0-.14.26.26,0,0,0-.1-.12L96.29,132v0l-1.6-6.46-.11-.34-2.95,1.11-2.59-6-.58.22,2,6.2-2.95,1.11L90.81,134l1.31,6.63v0l0,.07,3.17,5.83,1.21,6.64v.07l0,.09,3.29,5.81.54,3.37h0l1,5.66.73-.28,2.23,3.79v0l1,6.68,0,.07,0,.07,3.3,5.41.88-.34.85-6.35,4.82,4.16.93-.36L115,174.91a.34.34,0,0,0,0-.15.34.34,0,0,0-.1-.14l-3.67-5.54,0,0-.84-4.3.76-.29m3,10.28-3.65,1.41.22-2.08.41-3.92ZM105,171.09l.64-6.23,4.64,4.22Zm4.09-8.69-3.35,1.27.43-5.84Zm-8.62-3.86.43-6.1,4.4,4.26Zm3.51-8.46-3,1.14.05-1.32.18-4.37ZM96,146l.25-6,4.17,4.3Zm3-8.28-2.69,1,0-5.51ZM91.47,127.6l3.93,4.34-3.95,1.5Zm1.18,12.53-1-5.11,2.46,2.73,1.24,1.36Zm4.4,12.59-.95-5.23,1.2,1.25,2.76,2.85Zm4.42,12.58-.86-5.34,4.21,4.08Zm3.63,7.16,4.43,4-3.64,1.38Z" transform="translate(-3.23 -4.34)"/></g></svg>